<svg xmlns="http://www.w3.org/2000/svg" xml:space="preserve" id="Layer_1" x="0" y="0" version="1.1" viewBox="0 0 595.3 525.6"><style>.st0{fill:#010202}.st1{fill:#fff}.st2{stroke:#1d1d1b;stroke-width:.8652;stroke-miterlimit:10}.st2,.st3{fill:none}</style><path d="M545 430.9c6.6 0 11.8-5.2 11.8-12 0-6.6-5.2-11.9-11.7-11.9h-.1c-6.5 0-11.8 5.3-11.8 11.9 0 6.8 5.2 12 11.8 12m0-22c5.3 0 9.6 4.5 9.6 10.1s-4.2 10.1-9.5 10.1-9.6-4.4-9.6-10.1c-.1-5.6 4.2-10.1 9.5-10.1" class="st0"/><path d="M542.8 420.2h1.5c1.7 0 2.5.6 2.9 2.3.3 1.7.6 3 .9 3.4h2.2c-.2-.4-.5-1.2-.8-3.3-.3-2-1.1-3-2.2-3.2v-.1c1.4-.4 2.6-1.5 2.6-3.2 0-1.3-.4-2.2-1.2-2.8s-2.1-1-4.1-1c-1.6 0-2.6.2-3.8.3v13.3h2.1v-5.7zm0-6.2c.4-.1.8-.1 1.5-.1 2.4 0 3.2 1.2 3.2 2.3 0 1.6-1.5 2.3-3.2 2.3h-1.5zm-35.9 66.4c-.1-5-.7-15.4-3.4-23.8-3.6-11.1-7.2-18.5-20.3-18.6h-28.6v4.2c4.2.2 4.7 1.3 4.7 1.3V520s-.5 1.1-4.6 1.3v4.2h28.6c13.1-.1 16.8-7.5 20.3-18.6 2.7-8.3 3.3-18.8 3.4-23.8v-1.4c-.1-.8-.1-1.3-.1-1.3m-19.9 35c0 4.4-1.9 5.7-3.4 6h-6.5v-78.6h6.4c1.5.3 3.4 1.5 3.4 6v66.6zM66.7 442.2c4.2.2 4.7 1.3 4.7 1.3V520s-.5 1.1-4.7 1.3v4.2h45V505h-4.1c-.6 13.4-4.3 15-4.3 15H89.2v-36h9.3s2.1.9 2.4 8.3h3.1V470h-3.1c-.4 7.5-2.4 8.3-2.4 8.3h-9.3v-34.8h14.1s3.7 1.6 4.3 15h4.1V438h-45zm279 0c4.2.2 4.7 1.3 4.7 1.3V520s-.5 1.1-4.7 1.3v4.2h45V505h-4.1c-.6 13.4-4.3 15-4.3 15h-14.1v-36.1h9.3s2.1.9 2.4 8.3h3.1V470h-3.1c-.4 7.5-2.4 8.3-2.4 8.3h-9.3v-34.8h14.1s3.7 1.6 4.3 15h4.1V438h-45zm54.4 0c4.2.2 4.7 1.3 4.7 1.3V520s-.5 1.1-4.7 1.3v4.2h45V505H441c-.6 13.4-4.3 15-4.3 15h-14.1v-36h9.3s2.1.9 2.4 8.3h3.1V470h-3.1c-.4 7.5-2.4 8.3-2.4 8.3h-9.3v-34.8h14.1s3.7 1.6 4.3 15h4.1V438h-45zm-245.2 0c4.2.2 4.7 1.3 4.7 1.3v48L142 438.1h-21.3v4.2c4.2.2 4.7 1.3 4.7 1.3v76.6s-.5 1.1-4.7 1.3v4.2h14.7v-4.2c-4.2-.2-4.7-1.3-4.7-1.3v-58.5l21.2 64h13v-82.1s.5-1.1 4.7-1.3v-4.2h-14.7zm72.8 0c4.2.2 4.7 1.3 4.7 1.3v76.6s-.5 1.1-4.7 1.3v4.2h27.2v-4.2c-4.2-.2-4.7-1.3-4.7-1.3v-76.6s.5-1.1 4.7-1.3V438h-27.2zm-9.3 46.9c-3.2-6.5-7.2-11.4-7.2-11.4-10.2-13-13.6-18.2-13.6-18.2s-4.4-6.5-3.1-12.6c.6-2.8 3.1-4.9 6.1-4.9 2.3 0 4.3 1.2 5.4 3 0 0 3.2 4 3.3 14.4h9.1V438h-5.2c-1 2.1-3 2.6-3.1 2.6-3.2-2.8-7.4-4.5-12-4.5-5.6 0-10.5 2.5-13.9 6.4-2.9 3.4-4.3 7.4-4.3 7.4-5.7 15.4 4.5 27 8.2 32.2 3.5 4.5 7.7 10 14.7 19.1 2.8 3.7 4.2 7.8 4.3 11.3v.2c0 4.8-4 8.8-8.8 8.8-4.9 0-8.8-3.9-8.8-8.8v-12.9h-10v25.6h5.9c1.1-2.2 3.1-2.6 3.1-2.6 3.6 2.8 8.1 4.4 13.1 4.4 11.8 0 21.3-9.5 21.3-21.2-.1.3-.1-8.3-4.5-16.9m118 0c-3.2-6.5-7.2-11.4-7.2-11.4-10.2-13-13.6-18.2-13.6-18.2s-4.4-6.5-3.1-12.6c.6-2.8 3.1-4.9 6.1-4.9 2.3 0 4.3 1.2 5.4 3 0 0 3.2 4 3.3 14.4h9.1V438h-5.2c-1 2.1-3 2.6-3.1 2.6-3.2-2.8-7.4-4.5-12-4.5-5.6 0-10.5 2.5-13.9 6.4-2.9 3.4-4.3 7.4-4.3 7.4-5.7 15.4 4.5 27 8.2 32.2 3.5 4.5 7.7 10 14.7 19.1 2.8 3.7 4.2 7.8 4.3 11.3v.2c0 4.8-4 8.8-8.8 8.8-4.9 0-8.8-3.9-8.8-8.8v-12.9h-10v25.6h5.9c1.1-2.2 3.1-2.6 3.1-2.6 3.6 2.8 8.1 4.4 13.1 4.4 11.8 0 21.3-9.5 21.3-21.2-.1.3-.1-8.3-4.5-16.9m218.8 0c-3.2-6.5-7.2-11.4-7.2-11.4-10.2-13-13.6-18.2-13.6-18.2s-4.4-6.5-3.1-12.6c.6-2.8 3.1-4.9 6.1-4.9 2.3 0 4.3 1.2 5.4 3 0 0 3.2 4 3.3 14.4h9.1V438H550c-1 2.1-3 2.6-3.1 2.6-3.2-2.8-7.4-4.5-12-4.5-5.6 0-10.5 2.5-13.9 6.4-2.9 3.4-4.3 7.4-4.3 7.4-5.7 15.4 4.5 27 8.2 32.2 3.5 4.5 7.7 10 14.7 19.1 2.8 3.7 4.2 7.8 4.3 11.3v.2c0 4.8-4 8.8-8.8 8.8s-8.8-3.9-8.8-8.8v-12.9h-10v25.6h5.9c1.1-2.2 3.1-2.6 3.1-2.6 3.6 2.8 8.1 4.4 13.1 4.4 11.8 0 21.3-9.5 21.3-21.2-.1.3-.1-8.3-4.5-16.9m-497.8 0c-3.2-6.5-7.2-11.4-7.2-11.4-10.2-13-13.6-18.2-13.6-18.2s-4.4-6.5-3.1-12.6c.6-2.8 3.1-4.9 6.1-4.9 2.3 0 4.3 1.2 5.4 3 0 0 3.2 4 3.3 14.4h9.1V438h-5.2c-1 2.1-3 2.6-3.1 2.6-3.2-2.8-7.4-4.5-12-4.5-5.6 0-10.5 2.5-13.9 6.4C20.3 446 19 450 19 450c-5.7 15.4 4.5 27 8.2 32.2 3.5 4.5 7.7 10 14.7 19.1 2.8 3.7 4.2 7.8 4.3 11.3v.2c0 4.8-4 8.8-8.8 8.8s-8.8-3.9-8.8-8.8v-12.9h-10v25.6h5.9c1.1-2.2 3.1-2.6 3.1-2.6 3.6 2.8 8.1 4.4 13.1 4.4 11.8 0 21.3-9.5 21.3-21.2-.2.2-.2-8.4-4.6-17" class="st0"/><path d="M288.6 0C134.9 0 10.3 124.6 10.3 278.3c0 51.5 14 99.7 38.4 141.1h479.8c24.4-41.4 38.4-89.6 38.4-141.1C566.9 124.6 442.3 0 288.6 0" class="st1"/><path d="M460.8 75.7c.1.2.3.3.5.5l.1.1c.2.1.4.3.6.4.4.2 1.1.4 1.7.3 1.1-1.5 2.9-2.9 5-3.4l-5.9-5c-.2 2.1-1.2 4.2-2.5 5.5-.1.6.3 1.3.5 1.6" class="st1"/><ellipse cx="505.9" cy="120.6" class="st1" rx="2.5" ry="2.8" transform="rotate(-35.96 505.916 120.63)"/><path d="M469.4 74c-2.2.4-4 1.4-5.2 3-.4.1-.8.2-1.3.1-.9-.2-1.7-.6-2.3-1.3-.3-.4-.7-1.3-.7-2 1.5-1.5 2.3-3.4 2.4-5.8 2.4 2 4.7 4 7.1 6z" class="st2"/><path d="M469.4 74c-2.2.4-4 1.4-5.2 3-.4.1-.8.2-1.3.1-.9-.2-1.7-.6-2.3-1.3-.3-.4-.7-1.3-.7-2 1.5-1.5 2.3-3.4 2.4-5.8 2.4 2 4.7 4 7.1 6" class="st3"/><path d="M460.8 75.7c.1.2.3.3.5.5l.1.1c.2.1.4.3.6.4.4.2 1.1.4 1.7.3 1.1-1.5 2.9-2.9 5-3.4l-5.9-5c-.2 2.1-1.2 4.2-2.5 5.5-.1.6.3 1.3.5 1.6" class="st1"/><ellipse cx="505.9" cy="120.6" class="st1" rx="2.5" ry="2.8" transform="rotate(-35.96 505.916 120.63)"/><path d="M469.4 74c-2.2.4-4 1.4-5.2 3-.4.1-.8.2-1.3.1-.9-.2-1.7-.6-2.3-1.3-.3-.4-.7-1.3-.7-2 1.5-1.5 2.3-3.4 2.4-5.8 2.4 2 4.7 4 7.1 6z" class="st2"/><path d="M469.4 74c-2.2.4-4 1.4-5.2 3-.4.1-.8.2-1.3.1-.9-.2-1.7-.6-2.3-1.3-.3-.4-.7-1.3-.7-2 1.5-1.5 2.3-3.4 2.4-5.8 2.4 2 4.7 4 7.1 6" class="st3"/><path d="M564.1 278.2C564.1 126 440.7 2.7 288.6 2.7S13 126.1 13 278.2c0 50.2 13.4 97.2 36.9 137.8l.4.6h476.5l.4-.7c.4-.7.9-1.5 1.3-2.2l.1-.2c22.5-39.9 35.5-86.1 35.5-135.3M526.3 403c-1.2-.6-1.7-2.2-1-3.6s2.3-2 3.5-1.3 1.7 2.2 1 3.6c-.7 1.3-2.3 1.9-3.5 1.3m-4.6-27.6c.6.6 1.4 2.1 1.4 3.6s.1 3.4 1.8 5c0 0-.6.2-1.3.7-3.4 2-6.5 3.9-9.9 5.2-1.4.6-2.1.4-2.5.2-.6-.3-.7-.8-1.4-1.1v-.1c5.2-10.3 9.6-20.9 13.3-31.9.6.3 1.2 0 1.7.2.4.1 1 .5 1.6 1.9 1.5 3.5 2.3 7.2 3.4 11.2q.15.3.3.9c-2.3 0-3.8 1.3-4.8 2.3s-2.7 1.5-3.5 1.5h-.4c.1.2.2.3.3.4m-73-312.6c-.8 1.1-2.5 1.3-3.7.4s-1.6-2.5-.8-3.7c.8-1.1 2.5-1.3 3.7-.4 1.3.9 1.7 2.6.8 3.7m-14.8-14.6c-1.7.9-3.1 2.3-3.9 3.9-.5.1-1.3.1-1.7-.1l-.6-.3-.1-.1c-.2-.1-.4-.3-.6-.4-.3-.3-.8-.9-.9-1.4 1-1.4 1.7-3.4 1.7-5.3 2 1.2 4.1 2.5 6.1 3.7M413 40.4c-.6 1.2-2.2 1.7-3.6 1s-2-2.3-1.3-3.5c.6-1.2 2.2-1.7 3.6-1s2 2.2 1.3 3.5m-38.7-16.6c-.4 1.3-2 2-3.4 1.5s-2.3-1.9-1.9-3.2 2-2 3.4-1.5c1.5.5 2.3 1.9 1.9 3.2m-25.7-11c2.4.5 4.7 1.1 7.1 1.7-1.4 1.4-2.3 3.2-2.6 5-.4.3-1.2.5-1.6.5-.2 0-.5 0-.7-.1h-.1c-.2-.1-.5-.1-.7-.2-.4-.2-1-.7-1.3-1.1.6-1.8.6-3.9-.1-5.8m-15.2.7c-.2 1.4-1.6 2.3-3.1 2-1.5-.2-2.6-1.5-2.4-2.9s1.6-2.3 3.1-2 2.6 1.6 2.4 2.9m-27-6.8c2.4.2 4.8.3 7.2.6-1.2 1.6-1.8 3.6-1.8 5.3-.4.3-1.1.6-1.6.7h-.8c-.2 0-.5-.1-.7-.1-.4-.1-1.1-.5-1.4-.9.3-1.8 0-3.9-.9-5.6m-36.5 5.6c-.3.4-1 .8-1.4.9-.2.1-.5.1-.7.1h-.8c-.4-.1-1.1-.3-1.5-.7 0-1.8-.6-3.8-1.8-5.3 2.4-.2 4.8-.4 7.3-.6-1 1.7-1.4 3.8-1.1 5.6M247 15.6c-1.5.2-2.9-.7-3.1-2-.2-1.4.8-2.7 2.4-2.9 1.5-.2 2.9.7 3.1 2s-.9 2.6-2.4 2.9m-18.5 2.9c-.3.5-.9.9-1.3 1.1-.2.1-.4.2-.7.2h-.1c-.2.1-.5.1-.7.1-.4 0-1.2-.2-1.6-.5-.2-1.8-1.2-3.7-2.6-5 2.4-.6 4.8-1.2 7.1-1.7-.6 1.9-.7 4.1-.1 5.8m-22.1 6.8c-1.5.5-3-.2-3.4-1.5s.4-2.8 1.9-3.2c1.5-.5 3 .2 3.4 1.5s-.5 2.8-1.9 3.2m-38.6 16c-1.4.7-3 .3-3.6-1-.6-1.2 0-2.8 1.3-3.5 1.4-.7 3-.3 3.6 1 .7 1.3.1 2.8-1.3 3.5m-16.7 8.5c-.1.5-.6 1.2-.9 1.4-.2.2-.4.3-.6.4l-.1.1-.6.3c-.4.1-1.2.2-1.7.1-.8-1.6-2.2-3.1-4-3.9 2-1.3 4.1-2.6 6.2-3.8 0 2 .7 4 1.7 5.4m-18.9 13.4c-1.2.9-2.9.7-3.7-.4s-.5-2.8.8-3.7c1.2-.9 2.9-.7 3.7.4s.4 2.8-.8 3.7m-15.2 11c0 .5-.4 1.2-.6 1.6-.1.2-.3.3-.5.5l-.1.1c-.2.1-.4.3-.6.4-.4.2-1.1.4-1.7.3-1-1.4-2.6-2.7-4.5-3.2 1.8-1.6 3.6-3.1 5.5-4.7.4 1.9 1.3 3.7 2.5 5M55.4 375c-.8 0-2.5-.5-3.5-1.5s-2.5-2.3-4.8-2.3q.3-.6.3-.9c1.1-4 1.9-7.7 3.4-11.2.6-1.4 1.2-1.8 1.6-1.9.5-.2 1 0 1.6-.2 3.7 11 8.2 21.7 13.4 32-.6.3-.8.8-1.3 1.1-.4.2-1.1.4-2.5-.2-3.4-1.4-6.5-3.3-9.9-5.2-.8-.4-1.3-.7-1.3-.7 1.7-1.6 1.8-3.6 1.8-5 0-1.5.9-3 1.4-3.6.1-.1.2-.3.3-.4zm-7 23c1.2-.6 2.8 0 3.5 1.3.7 1.4.3 3-1 3.6-1.2.6-2.8 0-3.5-1.3s-.3-2.9 1-3.6m-5.3-60.7c-.8-.1-2.4-.8-3.3-2s-2.1-2.7-4.4-3c.2-.4.4-.7.5-.9 1.7-3.8 3.1-7.3 5.1-10.5.8-1.3 1.5-1.6 1.9-1.6.5-.1 1 .2 1.6.1 1.9 11.5 4.7 22.8 8.2 33.7-.6.2-.9.7-1.4.8-.4.1-1.1.2-2.4-.6-3.1-1.9-5.9-4.2-8.9-6.7-.7-.6-1.2-.9-1.2-.9 1.9-1.4 2.3-3.2 2.5-4.7.2-1.4 1.3-2.8 2-3.3q.3-.15.3-.3c-.2 0-.3-.1-.5-.1m-13.7-2.2c-2 1.1-4.3 1.2-6.5.2-.3-1.5-.7-3.1-1-4.6 1.8.2 4-.5 5.7-2 2.2-1.9 3.7-5.6 3.6-9.2v-.2c-1-3.5-3.6-6.5-6.3-7.6-2.1-.9-4.4-.8-6.1-.1-.2-1.6-.4-3.1-.5-4.7 1.8-1.7 4-2.4 6.3-1.9 2.4.5 4.8 2 7.7 5.1.6.7 1.3 1.4 1.9 2.1l2.4 2.7c.8.8 1.7 1.6 2.6 2.2.6.4 1.2.6 1.6.8-.4.3-.8.7-1.3 1.2-.7.8-1.3 1.8-1.8 2.9l-1.5 3.3c-.4.9-.8 1.8-1.2 2.6-1.7 3.8-3.4 6-5.6 7.2m1 6.4c0 .4-.2 1.2-.5 1.6-1.6.2-3.3 1-4.6 2.3-.6-2.2-1.1-4.4-1.6-6.6 1.8.5 3.7.5 5.3 0 .5.3.9.9 1.1 1.3.1.2.2.4.2.7v.1c.1.1.1.3.1.6M21.1 321c-.2-1.5.7-2.9 2-3.1 1.4-.2 2.7.8 2.9 2.4.2 1.5-.7 2.9-2 3.1-1.4.2-2.7-.9-2.9-2.4m1.9-33.8c2.5-1.5 4.5-5 5-8.5v-.2c-.5-3.6-2.5-7-5-8.5-2-1.2-4.3-1.5-6-1 .1-1.6.1-3.1.2-4.7 2.1-1.4 4.4-1.8 6.6-1 2.3.9 4.4 2.8 6.8 6.2.5.8 1 1.6 1.6 2.4.6 1 1.3 2.1 2 3 .7 1 1.4 1.9 2.3 2.6.5.5 1 .8 1.5 1-.4.2-.9.6-1.5 1-.8.7-1.6 1.6-2.3 2.6s-1.3 2-2 3c-.5.8-1 1.7-1.6 2.4-2.4 3.5-4.5 5.4-6.8 6.2-2.1.8-4.5.5-6.5-.9-.1-1.6-.2-3.1-.2-4.7 1.6.6 3.9.3 5.9-.9m-5.3-8.6c0-1.5 1.1-2.8 2.5-2.8s2.5 1.2 2.5 2.8c0 1.5-1.1 2.8-2.5 2.8s-2.5-1.3-2.5-2.8m7.1-33.1c2.7-1.1 5.2-4.2 6.3-7.7v-.2c.1-3.6-1.4-7.3-3.6-9.2-1.8-1.5-4.1-2.2-5.9-1.9l.9-4.5c2.3-1.1 4.7-1.1 6.7 0 2.1 1.2 3.9 3.4 5.7 7.2.4.8.8 1.7 1.2 2.6l1.5 3.3c.5 1.1 1.1 2.1 1.8 2.9.4.5.9 1 1.3 1.2-.4.2-1 .4-1.6.8-.9.6-1.8 1.4-2.6 2.2s-1.6 1.8-2.4 2.7c-.6.7-1.3 1.5-1.9 2.1-2.9 3-5.3 4.6-7.7 5.1-2.3.5-4.6-.2-6.4-2 .2-1.6.3-3.1.5-4.6 1.7.9 4.1.9 6.2 0m-3.8-9.3c.2-1.5 1.5-2.6 2.9-2.4s2.3 1.6 2 3.1c-.2 1.5-1.5 2.6-2.9 2.4-1.3-.2-2.3-1.6-2-3.1m2.3-17.7c.5-2.3 1.1-4.6 1.6-6.9 1.4 1.4 3.2 2.3 4.9 2.6.3.4.4 1.2.4 1.6 0 .2 0 .5-.1.7v.1c-.1.2-.1.5-.2.7-.2.4-.7 1-1.1 1.2-1.7-.6-3.7-.6-5.5 0m13.6 79.6c-.8-.2-2.2-1.2-2.9-2.5s-1.7-3-3.9-3.7c.3-.3.5-.6.6-.8 2.2-3.5 4.2-6.7 6.7-9.6 1-1.2 1.7-1.3 2.1-1.3.6 0 1 .3 1.6.3.1 11.7 1 23.3 2.7 34.6-.6.1-.9.5-1.5.6-.4.1-1.1.1-2.3-.9-2.8-2.3-5.2-5.1-7.8-8-.6-.7-1.1-1.1-1.1-1.1 2.1-1 2.8-2.8 3.2-4.2s1.8-2.6 2.5-2.9c.2-.1.3-.2.4-.3 0 0-.1-.1-.3-.2m4.3-26.6c0 1.6-.1 3.3-.1 4.9-.6 0-1 .4-1.6.4-.4 0-1.1-.1-2.1-1.3-2.4-2.7-4.3-5.9-6.4-9.2-.5-.8-.9-1.2-.9-1.2 2.2-.7 3.2-2.4 3.9-3.7s2.1-2.3 2.9-2.5c.2-.1.3-.1.4-.2-.1-.1-.2-.2-.4-.2-.7-.4-2-1.5-2.5-2.9-.4-1.4-1.2-3.2-3.2-4.2l.7-.7c2.7-3.1 5.2-6 8.1-8.4 1.2-1 1.9-1 2.3-.9.6.1.9.5 1.5.6-1.5 9.6-2.3 19.5-2.6 29.5M23 255.4c.3.4.6 1.1.7 1.6v.8c0 .2-.1.5-.1.7-.1.4-.5 1.1-.9 1.4-1.7-.3-3.6 0-5.3.8.1-2.3.3-4.7.5-7 1.5 1.1 3.4 1.7 5.1 1.7m-.3 41.9c.4.3.8 1 .9 1.4.1.2.1.5.1.7v.8c-.1.4-.3 1.1-.7 1.5-1.7 0-3.5.5-5 1.6l-.6-6.9c1.7.9 3.6 1.2 5.3.9m21.7-59.6c-.6-.1-1.1.2-1.6.1-.4-.1-1.1-.3-1.9-1.6-1.9-3.1-3.3-6.5-4.9-10-.4-.8-.7-1.3-.7-1.3 2.3-.3 3.5-1.8 4.4-3 .8-1.2 2.5-1.9 3.3-2 .2 0 .3-.1.4-.1l-.3-.3c-.6-.5-1.8-1.8-2-3.3-.2-1.4-.7-3.3-2.5-4.7.4-.2.6-.4.8-.6 3.2-2.6 6.1-5.1 9.3-7.1 1.3-.8 2-.7 2.4-.6.5.2.8.6 1.4.8-3.5 10.9-6.2 22.1-8.1 33.7m3.8-36.2c-1 .4-2 1.1-3 1.8s-1.9 1.5-2.8 2.3c-.8.6-1.5 1.2-2.2 1.8-3.3 2.5-5.9 3.7-8.4 3.8-2.3.1-4.5-1-6-3.1l1.2-4.5c1.5 1.1 3.9 1.5 6.2 1 2.8-.7 5.8-3.3 7.4-6.6 0-.1.1-.2.1-.2.6-3.6-.2-7.5-2.1-9.7-1.6-1.8-3.7-2.8-5.6-2.8.5-1.4 1.1-2.9 1.6-4.3 2.5-.8 4.9-.4 6.7 1.1 1.9 1.5 3.3 4 4.5 8 .3.9.5 1.8.7 2.8.3 1.2.6 2.4 1 3.5s.8 2.2 1.4 3.2c.4.6.7 1.1 1.1 1.4-.5.1-1.1.2-1.8.5m-17.3-6.7c.5-1.5 1.9-2.3 3.2-1.9s2 2 1.5 3.4c-.5 1.5-1.9 2.3-3.2 1.9s-2-2-1.5-3.4m12.3-18.7c0 .2-.1.5-.2.7v.1l-.3.6c-.2.3-.8.9-1.3 1.1-1.5-.8-3.5-1.2-5.4-.8.7-1.8 1.5-3.7 2.3-5.5.2-.4.3-.7.5-1.1 1.1 1.6 2.8 2.8 4.5 3.3 0 .4 0 1.2-.1 1.6M32.6 358.9c1.3-.4 2.8.4 3.2 1.9.5 1.5-.2 3-1.5 3.4s-2.8-.4-3.2-1.9c-.5-1.4.2-2.9 1.5-3.4m6.5 26.8c-.9-2.1-1.8-4.1-2.6-6.2 1.8.2 3.7-.1 5.1-.9.5.2 1.1.7 1.3 1.1l.3.6v.1c.1.2.2.4.2.7.1.4 0 1.2-.2 1.7-1.4.4-3 1.5-4.1 2.9m2.4-10.7c-1.7 1.4-4 1.8-6.3 1.2-.6-1.5-1.1-3-1.7-4.5 1.8-.1 3.8-1.1 5.2-2.8 1.9-2.2 2.8-6.1 2.1-9.7 0-.1-.1-.2-.1-.2-1.6-3.3-4.6-5.9-7.4-6.6-2.2-.5-4.4-.1-5.9.8-.4-1.5-.9-3-1.3-4.6 1.5-1.9 3.6-2.9 5.8-2.8 2.5.1 5 1.3 8.4 3.8.7.6 1.5 1.2 2.2 1.8.9.8 1.9 1.6 2.8 2.3q1.5 1.05 3 1.8c.6.3 1.2.4 1.7.5-.3.3-.7.8-1.1 1.4-.6.9-1 2-1.4 3.2-.4 1.1-.7 2.3-1 3.5-.2.9-.5 1.9-.7 2.8-1 4.1-2.4 6.6-4.3 8.1m12.3-175c-.6-.2-1.1 0-1.6-.1-.4-.1-1-.5-1.6-1.9-1.4-3.3-2.3-6.9-3.3-10.7-.2-.9-.5-1.4-.5-1.4 2.3 0 3.8-1.3 4.8-2.3s2.7-1.5 3.5-1.5c.2 0 .3 0 .5-.1-.1-.1-.1-.2-.3-.4-.6-.6-1.4-2.1-1.4-3.6s-.1-3.4-1.8-5c.4-.2.7-.3.9-.4 3.6-2.1 6.8-4.1 10.3-5.5 1.4-.6 2.1-.4 2.5-.2.5.2.7.8 1.3 1-5.2 10.3-9.6 21-13.3 32.1m9.4-35.2c-1.1.3-2.1.7-3.2 1.3-1.1.5-2.1 1.2-3.2 1.8-.8.5-1.7 1-2.5 1.4-3.7 2-6.4 2.8-8.9 2.5-2.3-.3-4.3-1.7-5.5-4 .6-1.4 1.3-2.8 1.9-4.2 1.3 1.3 3.6 2.1 5.9 2 2.9-.2 6.3-2.4 8.3-5.3.1-.1.1-.2.1-.2 1.2-3.4 1-7.4-.6-9.9-1.3-2-3.3-3.4-5.1-3.6.7-1.3 1.5-2.7 2.3-4 2.6-.4 4.9.4 6.5 2.1 1.7 1.8 2.7 4.5 3.2 8.6.1.9.2 1.9.3 2.9.1 1.2.2 2.4.4 3.6s.4 2.3.8 3.3c.3.7.6 1.2.8 1.6-.2-.1-.8-.1-1.5.1m-16.1-9.3c.7-1.4 2.3-2 3.5-1.3 1.2.6 1.7 2.2 1 3.6s-2.3 2-3.5 1.3c-1.3-.7-1.7-2.3-1-3.6m7.6-16.1c1.2-2.1 2.5-4.1 3.7-6.1.9 1.7 2.4 3.2 3.9 4 .1.5 0 1.3-.1 1.7l-.3.6-.1.1c-.1.2-.3.4-.4.6-.3.3-1 .7-1.5.8-1.3-1.1-3.3-1.8-5.2-1.7m5.7-9.2c.8-1.3 1.7-2.6 2.5-3.9 1.1 1.5 3.2 2.7 5.6 2.9 2.9.2 6.6-1.4 9.1-4 .1-.1.1-.2.1-.2 1.7-3.2 2.1-7.2 1-9.8-.9-2.2-2.7-3.9-4.5-4.4.9-1.2 1.9-2.4 2.9-3.6 2.6 0 4.8 1.1 6.1 3.1 1.4 2 1.9 4.8 1.8 9 0 .9-.1 1.9-.1 2.9-.1 1.2-.2 2.4-.2 3.6s.1 2.4.3 3.4c.2.7.4 1.3.6 1.7q-.75-.15-1.8 0c-1.1.1-2.2.4-3.4.8-1.1.4-2.3.8-3.4 1.3-.9.4-1.8.7-2.7 1-4 1.4-6.8 1.7-9.1 1.1-2.3-.7-4-2.4-4.8-4.9m8.9-11c.9-1.2 2.5-1.6 3.7-.8 1.1.8 1.3 2.5.4 3.7s-2.5 1.6-3.7.8c-1.1-.8-1.3-2.5-.4-3.7m14.9-12.3c-1.2-1.2-3-2.2-4.9-2.5 1.5-1.8 3.1-3.6 4.6-5.4.6 1.8 1.8 3.5 3.2 4.6 0 .5-.2 1.3-.4 1.6-.1.2-.3.4-.4.6l-.1.1-.5.5c-.2.2-.9.5-1.5.5m16.3-16.6c-1.1 1.1-2.8 1.2-3.7.2-1-1-.9-2.6.2-3.7s2.8-1.2 3.7-.2.8 2.6-.2 3.7m88.1-59.2c-.2.5-.7 1.1-1.1 1.3l-.6.3h-.1c-.2.1-.4.2-.7.2-.4.1-1.2 0-1.7-.2-.5-1.7-1.7-3.4-3.4-4.5.6-.3 1.2-.5 1.8-.8 1.6-.7 3.3-1.4 5-2-.4 2 0 4.1.8 5.7m100-23.8c1.5 0 2.8 1.1 2.8 2.5s-1.2 2.5-2.8 2.5c-1.5 0-2.8-1.1-2.8-2.5s1.3-2.5 2.8-2.5m100.9 18.2c1.6.6 3.2 1.3 4.8 2 .6.3 1.2.5 1.9.8-1.6 1.1-2.8 2.8-3.3 4.5-.5.2-1.3.3-1.7.2-.2 0-.5-.1-.7-.2h-.1l-.6-.3c-.3-.2-.9-.8-1.1-1.3.7-1.7 1.1-3.7.8-5.7m87.1 61.1c1-1 2.6-.9 3.7.2s1.2 2.8.2 3.7-2.6.9-3.7-.2-1.2-2.7-.2-3.7M534 337.7c.6.5 1.8 1.9 2 3.3s.6 3.3 2.5 4.7c0 0-.5.3-1.2.9-3 2.5-5.8 4.8-8.9 6.7-1.3.8-2 .7-2.4.6-.6-.2-.8-.7-1.5-.9 3.5-10.9 6.2-22.2 8.2-33.7.6.1 1.1-.2 1.7-.1.4.1 1.1.3 1.9 1.6 2 3.2 3.4 6.8 5.1 10.5.1.2.2.5.5.9-2.3.3-3.5 1.8-4.4 3s-2.5 1.9-3.3 2c-.2 0-.3.1-.4.1 0 .2.1.3.2.4m1.9-155.6c1.8-1.4 4.2-1.8 6.6-1.1.6 1.5 1.1 2.9 1.6 4.4-1.8 0-3.9 1.1-5.4 2.8-1.9 2.2-2.8 6.1-2.1 9.7 0 0 0 .1.1.2 1.6 3.3 4.5 5.9 7.4 6.6 2.2.5 4.6.1 6-.9l1.2 4.5c-1.5 2-3.7 3-5.9 2.9-2.5-.1-5-1.3-8.4-3.8-.7-.6-1.5-1.2-2.2-1.8-.9-.8-1.9-1.6-2.8-2.3q-1.5-1.05-3-1.8c-.6-.3-1.2-.4-1.7-.5.3-.3.7-.8 1.1-1.4.6-.9 1-2 1.4-3.2.4-1.1.7-2.3 1-3.5.2-.9.5-1.9.7-2.8 1.1-4 2.5-6.5 4.4-8m-1.7-7.7c1.6-.5 3.2-1.7 4.4-3.2.1.3.3.7.4 1 .8 1.8 1.5 3.6 2.2 5.4-1.8-.3-3.8.1-5.3.9-.5-.2-1.1-.7-1.3-1.1l-.3-.6v-.1c-.1-.2-.2-.4-.2-.7-.2-.3-.1-1.1.1-1.6m12.2 20.4c.5 1.5-.2 3-1.5 3.4s-2.8-.4-3.2-1.9c-.5-1.5.2-3 1.5-3.4 1.2-.4 2.7.4 3.2 1.9m3.3 33.6c-2.2 1.9-3.7 5.6-3.6 9.2v.2c1 3.5 3.6 6.6 6.3 7.7 2.1.9 4.4.8 6 .1.2 1.6.4 3.1.5 4.7-1.8 1.7-4 2.3-6.3 1.9-2.4-.5-4.8-2.1-7.7-5.1-.6-.7-1.3-1.4-1.9-2.1l-2.4-2.7c-.8-.9-1.7-1.6-2.6-2.2-.6-.4-1.2-.6-1.6-.8.4-.3.8-.7 1.3-1.2.7-.8 1.3-1.8 1.8-2.9l1.5-3.3c.4-.9.8-1.8 1.2-2.6 1.8-3.8 3.6-6 5.7-7.2 2-1.1 4.4-1.2 6.6-.1.3 1.5.6 3.1.9 4.6-1.7-.3-3.9.4-5.7 1.8m6.5 7.8c.2 1.5-.7 2.9-2 3.1-1.4.2-2.7-.8-2.9-2.4-.2-1.5.7-2.9 2-3.1 1.4-.2 2.7.8 2.9 2.4m-1.9 33.7c-2.5 1.5-4.5 4.9-5 8.5v.2c.5 3.6 2.5 7 5 8.5 1.9 1.2 4.2 1.5 5.9 1-.1 1.6-.1 3.2-.2 4.7-2 1.3-4.3 1.6-6.4.8-2.3-.9-4.4-2.8-6.8-6.2-.5-.8-1-1.6-1.6-2.4-.6-1-1.3-2.1-2-3-.7-1-1.4-1.9-2.3-2.6-.5-.5-1-.8-1.5-1 .4-.2.9-.6 1.5-1 .8-.7 1.6-1.6 2.3-2.6s1.4-2 2-3c.5-.8 1-1.6 1.6-2.4 2.4-3.4 4.5-5.4 6.8-6.2 2.1-.8 4.4-.5 6.4.9.1 1.6.1 3.2.2 4.7-1.7-.4-4 0-5.9 1.1m5.2 8.7c0 1.5-1.1 2.8-2.5 2.8s-2.5-1.2-2.5-2.8c0-1.5 1.1-2.8 2.5-2.8s2.5 1.2 2.5 2.8m.2 17.9c-.2 2.3-.3 4.5-.5 6.8-1.5-1-3.3-1.5-4.9-1.5-.4-.4-.6-1.1-.7-1.5v-.8c0-.2.1-.5.1-.7.1-.4.5-1.1.9-1.4 1.5.1 3.5-.1 5.1-.9m-19.4 2.1c.7.4 2 1.6 2.5 2.9.4 1.4 1.2 3.2 3.2 4.2 0 0-.5.4-1.1 1.1-2.6 2.9-5 5.7-7.8 8-1.2 1-1.9 1-2.3.9-.6-.1-.9-.5-1.6-.6 1.7-11.3 2.6-22.8 2.7-34.6.7.1 1.1-.4 1.7-.3.4 0 1.1.1 2.1 1.3 2.5 2.9 4.5 6.2 6.7 9.6.1.2.3.4.6.8-2.2.7-3.2 2.4-3.9 3.7s-2.1 2.3-2.9 2.5c-.2.1-.3.1-.4.2.2.1.3.2.5.3m.1-39.7c.8.2 2.2 1.2 2.9 2.5s1.6 3 3.9 3.7c0 0-.4.5-.9 1.2-2.1 3.3-4.1 6.4-6.4 9.2-1 1.2-1.7 1.3-2.1 1.3-.6 0-1-.4-1.7-.3 0-1.6 0-3.3-.1-4.9-.3-10.1-1.1-20-2.6-29.7.7-.1 1-.5 1.6-.6.4-.1 1.1-.1 2.3.9 2.9 2.5 5.4 5.4 8.1 8.4l.7.7c-2.1 1-2.8 2.8-3.2 4.2s-1.8 2.6-2.5 2.9c-.2.1-.3.2-.4.2.1.2.2.3.4.3m14.2 1c-.4-.3-.8-1-.9-1.4-.1-.2-.1-.5-.1-.7v-.8c0-.4.3-1.2.7-1.6 1.6 0 3.5-.6 5.1-1.6.2 2.3.4 4.5.5 6.8-1.7-.7-3.6-1-5.3-.7m-6.1-41.4c-.5-.3-1-.9-1.1-1.2-.1-.2-.2-.4-.2-.7v-.1c-.1-.2-.1-.5-.1-.7 0-.4.1-1.2.4-1.6 1.7-.3 3.5-1.2 4.8-2.5.6 2.2 1.1 4.5 1.6 6.8-1.9-.6-3.8-.6-5.4 0m-20-14.8c3.2 2 6.1 4.5 9.3 7.1.2.1.4.3.8.6-1.9 1.4-2.3 3.2-2.5 4.7-.2 1.4-1.3 2.8-2 3.3q-.3.15-.3.3c.1 0 .3.1.4.1.8.1 2.4.9 3.3 2 .8 1.2 2.1 2.7 4.4 3 0 0-.3.5-.7 1.3-1.6 3.6-3 7-4.9 10-.8 1.3-1.5 1.6-1.9 1.6-.6.1-1.1-.2-1.7-.1-1.9-11.5-4.6-22.8-8.1-33.7.6-.2.9-.7 1.5-.8.4-.1 1.1-.2 2.4.6m12.4 121.6-1.5-3.3c-.5-1.1-1.1-2.1-1.8-2.9-.4-.5-.9-1-1.3-1.2.4-.2 1-.4 1.6-.8.9-.6 1.8-1.3 2.6-2.2.8-.8 1.7-1.8 2.4-2.7.6-.7 1.3-1.5 1.9-2.1 2.9-3 5.3-4.6 7.7-5.1 2.2-.4 4.4.2 6.2 1.9-.2 1.6-.3 3.1-.5 4.7-1.6-.7-3.9-.7-6 .1-2.7 1.1-5.2 4.2-6.3 7.6v.2c-.1 3.6 1.4 7.3 3.6 9.2 1.7 1.4 3.9 2.1 5.7 2-.3 1.6-.6 3.1-1 4.6-2.2 1-4.5.9-6.5-.2-2.1-1.2-3.9-3.4-5.7-7.2-.3-.8-.7-1.7-1.1-2.6m15.2-4.3c-.2 1.5-1.5 2.6-2.9 2.4s-2.3-1.6-2-3.1c.2-1.5 1.5-2.6 2.9-2.4s2.3 1.6 2 3.1m-9.2 19.8v-.1c.1-.2.1-.5.2-.7.2-.4.7-1 1.1-1.3 1.6.5 3.5.5 5.3 0-.5 2.2-1 4.4-1.6 6.6-1.3-1.2-3.1-2.1-4.7-2.3-.3-.4-.5-1.2-.5-1.6.1-.2.2-.4.2-.6m-17.8-181.7c-1.2.6-2.8 0-3.5-1.3-.7-1.4-.3-3 1-3.6 1.2-.6 2.8 0 3.5 1.3s.3 2.9-1 3.6m-6.7-19.8c-1.9 0-3.8.7-5.1 1.7-.5-.1-1.2-.5-1.5-.8-.2-.2-.3-.4-.4-.6l-.1-.1-.3-.6c-.1-.4-.2-1.2-.1-1.7 1.5-.8 3-2.2 3.8-3.9 1.3 2 2.5 4 3.7 6m-29.2-40.2c1.5 1.8 3.1 3.5 4.5 5.3-1.8.3-3.6 1.3-4.8 2.5-.5 0-1.2-.3-1.6-.6-.2-.1-.4-.3-.5-.5l-.1-.1c-.2-.2-.3-.4-.4-.6-.2-.4-.4-1.1-.4-1.6 1.5-.9 2.7-2.6 3.3-4.4m-.8 23.1c-.1-1-.1-1.9-.1-2.9-.1-4.2.5-7 1.8-9 1.3-1.9 3.4-3 5.9-3.1 1 1.2 1.9 2.4 2.9 3.7-1.7.6-3.4 2.2-4.3 4.4-1.1 2.7-.7 6.7 1 9.8 0 0 0 .1.1.2 2.5 2.6 6.1 4.2 9.1 4 2.3-.2 4.4-1.3 5.5-2.8.9 1.3 1.7 2.6 2.6 3.9-.8 2.4-2.5 4.1-4.8 4.7-2.4.7-5.2.3-9.1-1.1-.9-.3-1.8-.7-2.7-1-1.1-.5-2.3-.9-3.4-1.3s-2.3-.7-3.4-.8c-.7-.1-1.3 0-1.8 0 .2-.4.4-1 .6-1.7.2-1.1.3-2.2.3-3.4s-.1-2.4-.2-3.6m21.5 37.4c.2-1.2.3-2.4.4-3.6.1-1 .2-1.9.3-2.9.6-4.2 1.6-6.8 3.2-8.6 1.6-1.7 3.8-2.5 6.3-2.1.8 1.3 1.5 2.7 2.3 4.1-1.8.3-3.7 1.7-5 3.6-1.5 2.5-1.8 6.5-.6 9.9 0 0 0 .1.1.2 2.1 3 5.4 5.1 8.3 5.3 2.3.2 4.5-.6 5.8-1.9.7 1.4 1.3 2.8 1.9 4.3-1.2 2.2-3.1 3.6-5.4 3.8-2.4.3-5.2-.5-8.9-2.5-.8-.4-1.6-.9-2.5-1.4-1-.6-2.1-1.3-3.2-1.8s-2.1-1-3.2-1.3c-.7-.2-1.3-.2-1.8-.3.3-.4.6-.9.8-1.6.8-.8 1-2 1.2-3.2m0 7.5c3.5 1.4 6.8 3.5 10.3 5.5.2.1.5.2.9.4-1.7 1.6-1.8 3.6-1.8 5 0 1.5-.9 3-1.4 3.6-.1.1-.2.2-.3.4.1 0 .3.1.5.1.8 0 2.5.5 3.5 1.5s2.5 2.3 4.8 2.3c0 0-.2.6-.5 1.4-1 3.8-1.9 7.3-3.3 10.7-.6 1.4-1.2 1.8-1.6 1.9-.6.2-1.1-.1-1.7.2-3.7-11.1-8.1-21.7-13.3-32 .6-.3.8-.8 1.4-1.1.4-.3 1.1-.5 2.5.1m15.6 193.6c-.4-1.1-.8-2.2-1.4-3.2-.4-.6-.7-1.1-1.1-1.4.5-.1 1.1-.2 1.7-.5q1.5-.6 3-1.8c1-.7 1.9-1.5 2.8-2.3.8-.6 1.5-1.2 2.2-1.8 3.3-2.5 5.9-3.7 8.4-3.8 2.2-.1 4.3.9 5.8 2.8-.1.3-.1.5-.2.8-.3 1.3-.7 2.5-1.1 3.8-1.5-1-3.7-1.4-5.9-.9-2.8.7-5.8 3.3-7.4 6.6 0 0 0 .1-.1.2-.7 3.6.2 7.5 2.1 9.7 1.5 1.7 3.5 2.7 5.3 2.8-.5 1.5-1.1 3-1.7 4.4-2.3.6-4.6.2-6.4-1.2-1.9-1.5-3.3-4-4.5-8-.3-.9-.5-1.8-.7-2.8-.1-1.1-.4-2.2-.8-3.4m16.6 1.7c-.5 1.5-1.9 2.3-3.2 1.9s-2-2-1.5-3.4c.5-1.5 1.9-2.3 3.2-1.9s2 1.9 1.5 3.4m-12.4 18.7c0-.2.1-.5.2-.7v-.1l.3-.6c.2-.3.8-.9 1.3-1.1 1.5.7 3.4 1.1 5.2.9-.8 2.1-1.7 4.2-2.6 6.3-1.1-1.4-2.7-2.5-4.2-3-.2-.5-.2-1.3-.2-1.7M63.6 397.4c-.2 1.2-.3 2.4-.4 3.6-.1 1-.2 1.9-.3 2.9-.6 4.2-1.5 6.8-3.2 8.6-.4.4-.7.7-1.2 1H53c-.6-1-1.1-2-1.7-3 1.7-.4 3.5-1.7 4.7-3.6 1.5-2.5 1.8-6.5.6-9.9 0-.1-.1-.2-.1-.2-2.1-3-5.4-5.1-8.3-5.3-2.2-.2-4.3.5-5.7 1.7-.7-1.4-1.3-2.9-2-4.3 1.2-2.1 3.1-3.4 5.3-3.6 2.4-.3 5.2.5 8.9 2.5.8.4 1.6.9 2.5 1.4 1 .6 2.1 1.2 3.2 1.8 1.1.5 2.1 1 3.2 1.3.7.2 1.3.2 1.8.2-.3.4-.6.9-.8 1.6-.6 1-.8 2.1-1 3.3m9.1 16.1c.1-1.2.5-2.3.9-2.8.1-.2.2-.3.2-.4h-.5c-.8.1-2.6-.1-3.7-.9 0 0-1.3-1-2.7-1.4-1.3-.3-2.4-.1-2.4-.1.1-.4.1-.7.2-1 .4-4.1.7-7.9 1.6-11.6.4-1.5.9-1.9 1.3-2.1.5-.3 1.1-.1 1.6-.4 3.1 6 6.5 11.8 10.1 17.4l2.1 3.3zM69 164.2c-.6-.3-1.1-.1-1.6-.4-.4-.2-1-.6-1.3-2.1-.9-3.5-1.2-7.2-1.6-11.1-.1-.9-.2-1.5-.2-1.5 2.3.4 3.9-.7 5.1-1.5 1.2-.9 2.9-1.1 3.7-.9h.5c0-.1-.1-.2-.2-.4-.5-.6-1.1-2.3-.9-3.7s.4-3.4-1-5.2q.6-.15.9-.3c3.8-1.5 7.4-3 11.1-3.8 1.5-.4 2.2 0 2.5.2.5.3.6.9 1.2 1.3-6.8 9.2-12.9 19.1-18.2 29.4m20.6-33c-.5-.4-1.1-.3-1.6-.7-.3-.2-.8-.8-1-2.3-.3-3.6 0-7.3.2-11.2v-1.5c2.2.7 4 0 5.3-.7s3.1-.6 3.8-.3c.2.1.3.1.4.1 0-.1-.1-.3-.2-.4-.4-.7-.7-2.4-.3-3.8.5-1.4.9-3.3-.1-5.3.4-.1.7-.1 1-.1 4-.9 7.7-1.8 11.5-2.1 1.5-.1 2.1.3 2.4.6.4.4.4 1 1 1.5-8 8.1-15.5 16.9-22.4 26.2m22.8-41.8c-.2.9-.4 1.9-.6 2.8-.3 1.2-.5 2.4-.7 3.6s-.3 2.3-.2 3.4c0 .7.2 1.3.3 1.8-.4-.1-1.1-.3-1.8-.3-1.1-.1-2.2 0-3.4.2s-2.4.5-3.6.7c-1 .2-1.9.4-2.8.6-4.1.8-7 .6-9.2-.4-2.1-1-3.6-3-4-5.5 1-1.1 2.1-2.3 3.1-3.4.8 1.7 2.7 3.1 5 3.7 2.8.7 6.7-.3 9.6-2.5l.1-.1c2.2-2.9 3.2-6.7 2.5-9.6-.6-2.3-2.1-4.2-3.7-5 1.1-1.1 2.3-2.1 3.4-3.1 2.6.4 4.6 1.8 5.5 4 1.1 2.2 1.2 5 .5 9.1m2.7 12.5c-.4-.5-1.1-.5-1.5-1-.3-.3-.7-.9-.6-2.4.3-3.6 1.1-7.2 1.9-11 .2-.9.2-1.5.2-1.5 2.1 1.1 3.9.6 5.3.1s3.1-.1 3.8.3c.2.1.3.1.4.2 0-.1 0-.3-.1-.4-.3-.8-.3-2.5.3-3.8.7-1.3 1.4-3.1.7-5.3h1c4.1-.2 7.9-.5 11.7-.2 1.5.1 2.1.6 2.3 1 .4.5.3 1.1.7 1.6-9.1 6.8-17.9 14.3-26.1 22.4m26.7-31.7c-.4 1.1-.7 2.3-.8 3.4-.1.7 0 1.3 0 1.8-.4-.2-1-.4-1.7-.6-1.1-.2-2.2-.3-3.4-.3s-2.4.1-3.6.2c-1 .1-1.9.1-2.9.2-4.2.1-7-.5-9-1.8s-3.1-3.5-3.1-6.1c1.2-1 2.4-1.9 3.6-2.9.5 1.8 2.2 3.6 4.4 4.5 2.7 1.1 6.7.7 9.8-1 .1 0 .2-.1.2-.1 2.6-2.5 4.2-6.2 4-9.1-.2-2.4-1.4-4.6-3-5.6 1.3-.9 2.5-1.7 3.8-2.5 2.5.8 4.3 2.5 4.9 4.8.7 2.4.3 5.2-1 9.1-.3.9-.7 1.8-1 2.7zm3 6.7c-.4-.6-1-.7-1.3-1.2-.3-.3-.6-1-.2-2.5.8-3.5 2.2-6.9 3.6-10.6.3-.8.5-1.4.5-1.4 1.9 1.4 3.8 1.2 5.2 1s3.1.4 3.7.9c.2.1.3.2.4.2v-.5c-.1-.8.1-2.6.9-3.7.9-1.2 1.9-2.8 1.5-5.1.4.1.7.1 1 .2 4.1.4 7.9.7 11.6 1.6 1.5.4 1.9.9 2.1 1.3.3.5.1 1.1.5 1.7-10.2 5.3-20.1 11.4-29.5 18.1M174.9 53c-.2.7-.2 1.3-.3 1.8-.4-.3-.9-.6-1.6-.8-1-.4-2.1-.7-3.3-.8-1.2-.2-2.4-.3-3.6-.4-1-.1-1.9-.2-2.9-.3-4.2-.6-6.8-1.6-8.6-3.2s-2.5-4-2.1-6.6c1.3-.8 2.6-1.5 4-2.3.2 1.9 1.6 3.9 3.7 5.2 2.5 1.5 6.5 1.8 9.9.6.1 0 .2-.1.2-.1 3-2.1 5.1-5.4 5.3-8.3.2-2.4-.7-4.8-2.1-6 1.4-.6 2.8-1.3 4.2-1.9 2.4 1.2 3.9 3.2 4.2 5.6s-.5 5.2-2.5 8.9c-.4.8-.9 1.6-1.4 2.5-.6 1-1.2 2.1-1.8 3.2-.6.8-1 1.8-1.3 2.9m3.2 3.9c-.3-.6-.8-.8-1.1-1.3-.2-.4-.4-1.1.2-2.5 1.4-3.4 3.3-6.5 5.2-9.9.4-.8.7-1.3.7-1.3 1.6 1.7 3.6 1.8 5 1.8 1.5 0 3 .9 3.6 1.4.1.1.3.2.4.3V45c0-.8.5-2.5 1.5-3.5s2.3-2.5 2.3-4.8q.6.3.9.3c4 1.1 7.7 1.9 11.2 3.4 1.4.6 1.8 1.2 1.9 1.6.2.5 0 1.1.2 1.7-11 3.5-21.7 8-32 13.2M211 39.7c-.3-.3-.8-.7-1.4-1.1-.9-.6-2-1-3.2-1.4-1.1-.4-2.3-.7-3.5-1-.9-.2-1.9-.5-2.8-.7-4-1.2-6.5-2.6-8-4.5s-1.9-4.4-1-6.9c1.4-.5 2.8-1.1 4.3-1.6-.1 1.9 1 4.1 2.8 5.7 2.2 1.9 6.1 2.8 9.7 2.1.1 0 .2-.1.2-.1 3.3-1.6 5.9-4.5 6.6-7.4.6-2.4.1-4.8-1.1-6.3 1.5-.4 2.9-.8 4.4-1.2 2.2 1.5 3.4 3.8 3.3 6.2-.1 2.5-1.3 5-3.8 8.4-.6.7-1.2 1.5-1.8 2.2-.8.9-1.6 1.9-2.3 2.8q-1.05 1.5-1.8 3-.45 1.05-.6 1.8m36.8-5.5c-11.5 1.9-22.8 4.6-33.7 8.1-.2-.6-.7-.9-.8-1.5-.1-.4-.2-1.1.6-2.4 1.9-3.1 4.3-5.9 6.7-8.9.6-.7.9-1.2.9-1.2 1.4 1.9 3.2 2.3 4.7 2.5 1.4.2 2.8 1.3 3.3 2q.15.3.3.3c0-.1.1-.2.1-.4.1-.8.8-2.4 2-3.3s2.7-2.1 3-4.4c.4.2.7.4.9.5 3.8 1.7 7.3 3.1 10.5 5.1 1.3.8 1.6 1.5 1.6 1.9.1.5-.2 1-.1 1.7m1.5-3.7c-.3-.4-.7-.8-1.2-1.3-.8-.7-1.8-1.3-2.9-1.8l-3.3-1.5c-.9-.4-1.8-.8-2.6-1.2-3.8-1.8-6-3.6-7.2-5.7s-1.2-4.6.1-7l4.5-.9c-.4 1.8.3 4.2 1.9 6.1 1.9 2.2 5.6 3.7 9.2 3.6h.2c3.5-1 6.5-3.6 7.7-6.3.9-2.3.8-4.7-.1-6.4 1.5-.2 3-.4 4.6-.5 1.9 1.8 2.7 4.2 2.2 6.6s-2.1 4.8-5.1 7.7c-.7.6-1.4 1.3-2.1 1.9l-2.7 2.4c-.9.8-1.6 1.7-2.2 2.6-.6.7-.8 1.2-1 1.7m37.3.3c-11.7.1-23.3 1-34.6 2.7-.1-.7-.5-1-.6-1.6-.1-.4-.1-1.1.9-2.3 2.3-2.8 5.1-5.2 8-7.8.7-.6 1.1-1.1 1.1-1.1 1 2.1 2.8 2.8 4.2 3.2s2.6 1.8 2.9 2.5c.1.2.2.3.3.4.1-.1.1-.2.2-.4.2-.8 1.2-2.2 2.5-2.9s3-1.6 3.7-3.9c.3.3.6.5.8.6 3.5 2.2 6.7 4.2 9.6 6.7 1.2 1 1.3 1.7 1.3 2.1 0 .7-.4 1.2-.3 1.8m3-4.9c-.5.5-.8 1-1 1.5-.2-.4-.6-.9-1-1.5-.7-.8-1.6-1.6-2.6-2.3s-2-1.4-3-2c-.8-.5-1.6-1-2.4-1.6-3.4-2.4-5.4-4.5-6.2-6.8-.8-2.2-.4-4.7 1.1-6.8 1.5-.1 3.1-.1 4.6-.2-.6 1.8-.3 4.2.9 6.3 1.5 2.5 4.9 4.5 8.5 5h.2c3.6-.5 7-2.5 8.5-5 1.2-2.1 1.5-4.5.9-6.2 1.5.1 3.1.1 4.6.2 1.6 2.1 1.9 4.6 1.1 6.8-.9 2.3-2.8 4.4-6.2 6.8-.8.5-1.6 1-2.4 1.6-1 .6-2.1 1.3-3 2-1 .6-1.8 1.4-2.6 2.2m36.3 6c-.1.6-.5.9-.6 1.6-11.3-1.7-22.8-2.6-34.6-2.7.1-.7-.4-1.1-.3-1.7 0-.4.1-1.1 1.3-2.1 2.8-2.4 5.9-4.3 9.2-6.4.8-.5 1.2-.9 1.2-.9.7 2.2 2.4 3.2 3.7 3.9s2.3 2.1 2.5 2.9c.1.2.1.3.2.4.1-.1.2-.2.2-.4.4-.7 1.6-2 2.9-2.5 1.4-.4 3.2-1.2 4.2-3.2l.7.7c3.1 2.7 6 5.2 8.4 8.1 1.1 1.2 1.1 1.9 1 2.3m2-1.4c-.2-.4-.4-1-.8-1.6-.6-.9-1.3-1.8-2.2-2.6-.8-.8-1.8-1.6-2.7-2.4-.7-.6-1.5-1.3-2.1-1.9-3-2.9-4.6-5.3-5.1-7.7-.5-2.3.3-4.7 2.2-6.5 1.5.2 3 .3 4.6.5-.9 1.6-1 4.1-.1 6.3 1.1 2.7 4.2 5.2 7.7 6.3h.2c3.6.1 7.3-1.4 9.2-3.6 1.6-1.9 2.2-4.2 1.9-6.1l4.5.9c1.2 2.3 1.2 4.8.1 6.9-1.2 2.1-3.4 3.9-7.2 5.7-.8.4-1.7.8-2.6 1.2l-3.3 1.5c-1.1.5-2.1 1.1-2.9 1.8-.7.4-1.1.9-1.4 1.3M364 40.8c-.2.6-.7.8-.8 1.5-10.9-3.5-22.2-6.2-33.7-8.1.1-.6-.2-1.1-.1-1.7.1-.4.3-1.1 1.6-1.9 3.2-2 6.8-3.4 10.5-5.1.2-.1.5-.2.9-.5.3 2.3 1.8 3.5 3 4.4s1.9 2.5 2 3.3c0 .2.1.3.1.4l.3-.3c.5-.6 1.8-1.8 3.3-2 1.4-.2 3.3-.7 4.7-2.5 0 0 .3.5.9 1.2 2.5 3 4.8 5.8 6.7 8.9.8 1.3.7 2 .6 2.4m1.7-2.8c-.4-1-1.1-2-1.8-3s-1.5-1.9-2.3-2.8c-.6-.8-1.2-1.5-1.8-2.2-2.5-3.3-3.7-5.9-3.8-8.4-.1-2.4 1-4.6 3.2-6.1 1.5.4 2.9.8 4.4 1.2-1.1 1.5-1.6 3.9-1.1 6.3.7 2.8 3.3 5.8 6.6 7.4 0 0 .1 0 .2.1 3.6.6 7.5-.2 9.7-2.1 1.8-1.6 2.9-3.8 2.8-5.7 1.4.5 2.9 1.1 4.3 1.6.8 2.5.4 4.9-1 6.8-1.5 1.9-4 3.3-8 4.5-.9.3-1.8.5-2.8.7-1.2.3-2.4.6-3.5 1s-2.2.8-3.2 1.4c-.6.4-1.1.7-1.4 1.1-.1-.6-.2-1.2-.5-1.8m34.5 17.5c-.3.5-.8.7-1.1 1.4-10.3-5.2-21-9.6-32-13.3.2-.6 0-1.1.2-1.7.1-.4.5-1 1.9-1.6 3.5-1.5 7.2-2.3 11.2-3.4q.3-.15.9-.3c0 2.3 1.3 3.8 2.3 4.8s1.5 2.7 1.5 3.5v.4c.1-.1.2-.1.4-.3.6-.6 2.1-1.4 3.6-1.4s3.4-.1 5-1.8c0 0 .2.6.7 1.3 2 3.4 3.9 6.5 5.2 9.9.6 1.5.4 2.2.2 2.5m2.1-2.5c-.3-1.1-.7-2.1-1.3-3.2-.5-1.1-1.2-2.1-1.8-3.2-.5-.8-1-1.7-1.4-2.5-2-3.7-2.7-6.4-2.5-8.9.3-2.4 1.7-4.4 4.1-5.5 1.4.6 2.8 1.3 4.2 1.9-1.3 1.3-2.2 3.6-2 6 .2 2.9 2.4 6.3 5.3 8.3 0 0 .1.1.2.1 3.4 1.2 7.4 1 9.9-.6 2-1.3 3.4-3.3 3.7-5.1 1.3.8 2.7 1.5 4 2.3.4 2.6-.4 4.9-2.1 6.5-1.8 1.7-4.5 2.7-8.6 3.2-.9.1-1.9.2-2.9.3-1.2.1-2.4.2-3.6.4s-2.3.4-3.3.8c-.7.3-1.2.6-1.6.8 0-.3-.1-.9-.3-1.6m31.4 22.7c-.3.5-.9.6-1.3 1.2l-.4-.2c-9.3-6.6-19-12.6-29.2-17.9.4-.6.2-1.2.5-1.7.2-.4.6-1 2.1-1.3 3.7-.9 7.5-1.2 11.6-1.6.2 0 .5-.1 1-.2-.4 2.3.7 3.9 1.5 5.1.9 1.2 1.1 2.9.9 3.7v.5c.1 0 .2-.1.4-.2.6-.5 2.3-1.1 3.7-.9s3.4.4 5.2-1c0 0 .2.6.5 1.4 1.4 3.6 2.8 7 3.6 10.6.5 1.6.1 2.2-.1 2.5m.5-8.9c-.4-.9-.7-1.8-1-2.7-1.4-4-1.7-6.8-1-9.1.6-2.3 2.4-4 4.8-4.8 1.3.8 2.6 1.7 3.9 2.6-1.5 1.1-2.7 3.2-2.9 5.6-.2 2.9 1.3 6.6 4 9.1 0 0 .1.1.2.1 3.2 1.7 7.2 2.1 9.8 1 2.2-.9 3.8-2.6 4.4-4.4 1.2 1 2.4 1.9 3.6 2.9 0 2.6-1.1 4.7-3.1 6-2 1.4-4.8 1.9-9 1.8-.9 0-1.9-.1-2.9-.2-1.2-.1-2.4-.2-3.6-.2s-2.4.1-3.4.3c-.7.2-1.3.4-1.7.6q.15-.75 0-1.8c-.1-1.1-.4-2.2-.8-3.4-.4-1.1-.9-2.2-1.3-3.4m29.4 34.2c-.4.4-1 .4-1.5 1l-.5-.4c-8-7.8-16.6-15.2-25.6-21.9l-.3-.3c.5-.5.4-1.1.7-1.6.2-.3.8-.8 2.3-1 3.8-.3 7.6 0 11.7.2h1c-.7 2.2 0 4 .7 5.3s.6 3.1.3 3.8c-.1.2-.1.3-.1.4.1 0 .3-.1.4-.2.7-.4 2.4-.7 3.8-.3 1.4.5 3.3.9 5.3-.1 0 0 .1.6.2 1.5.8 3.8 1.7 7.4 1.9 11 .4 1.7 0 2.3-.3 2.6m1.7-20.8c1-2.1 2.9-3.5 5.4-4 1.1 1 2.3 2.1 3.4 3.2-1.6.8-3 2.7-3.6 5-.7 2.8.3 6.7 2.5 9.6l.1.1c2.9 2.2 6.7 3.2 9.6 2.5 2.3-.6 4.1-2 5-3.6 1.1 1.1 2.1 2.3 3.2 3.5-.4 2.5-1.9 4.4-4 5.4-2.2 1-5.1 1.1-9.2.4-.9-.2-1.9-.4-2.8-.6-1.2-.3-2.4-.5-3.6-.7s-2.3-.3-3.4-.2c-.7 0-1.3.2-1.8.3.1-.4.3-1.1.3-1.8.1-1.1 0-2.2-.2-3.4s-.5-2.4-.7-3.6c-.2-1-.4-1.9-.6-2.8-.8-4.2-.7-7 .4-9.3m23.9 50.3c-.5.4-1.1.3-1.6.7l-.2-.2c-6.7-9.1-14.1-17.7-22-25.7l-.3-.4c.5-.4.5-1.1 1-1.5.3-.3.9-.7 2.4-.6 3.8.3 7.5 1.2 11.5 2.1.2 0 .5.1 1 .1-1.1 2.1-.6 3.9-.1 5.3s.1 3.1-.3 3.8c-.1.2-.1.3-.2.4.1 0 .3 0 .4-.1.8-.3 2.5-.3 3.8.3 1.3.7 3.1 1.4 5.3.7v1.5c.2 3.9.5 7.6.2 11.2-.1 1.7-.6 2.2-.9 2.4m.8 4.2c.6-.4.7-1 1.2-1.3.3-.3 1-.6 2.5-.2 3.7.9 7.2 2.4 11.1 3.8q.3.15.9.3c-1.4 1.9-1.2 3.8-1 5.2s-.4 3.1-.9 3.7c-.1.2-.2.3-.2.4h.5c.8-.1 2.6.1 3.7.9 1.2.9 2.8 1.9 5.1 1.5 0 0-.1.6-.2 1.5-.4 3.9-.7 7.6-1.6 11.1-.4 1.5-.9 1.9-1.3 2.1-.5.3-1.1.1-1.7.5-5.3-10.2-11.3-20-18-29.3zm17.6 274.7c-1.2.9-2.9 1-3.7.9h-.5c0 .1.1.2.2.4.4.5.8 1.6.9 2.8h-8.9l2.1-3.3c3.6-5.6 6.9-11.4 10-17.4l.1-.1c.6.4 1.2.2 1.7.5.4.2 1 .6 1.3 2.1.9 3.7 1.2 7.5 1.6 11.6 0 .2.1.5.2 1-2.2-.4-3.9.7-5 1.5m9.9 3.1c-1.7-1.8-2.7-4.5-3.2-8.6-.1-.9-.2-1.9-.3-2.9-.1-1.2-.2-2.4-.4-3.6s-.4-2.3-.8-3.3c-.3-.7-.6-1.2-.8-1.6.5 0 1.1-.1 1.8-.2 1.1-.3 2.1-.7 3.2-1.3 1.1-.5 2.1-1.2 3.2-1.8.8-.5 1.7-1 2.5-1.4 3.7-2 6.4-2.7 8.9-2.5 2.2.3 4.1 1.6 5.3 3.7-.6 1.4-1.3 2.9-2 4.3-1.3-1.2-3.5-1.9-5.7-1.7-2.9.2-6.3 2.3-8.3 5.3 0 0-.1.1-.1.2-1.2 3.4-1 7.4.6 9.9 1.2 1.9 3 3.2 4.7 3.6-.6 1-1.1 2-1.7 3h-5.6c-.5-.4-.9-.7-1.3-1.1" class="st0"/><path d="M97.3 409.7c-26.8-38.8-41-84.1-41-131.7 0-127.3 103-231.1 230.1-232.3h4.5C418 47 521 150.7 521 278c0 47.6-14.1 92.9-40.9 131.7 0 0-1.7 2.4-2.7 3.8h6c.8-1.1 1.5-2.1 2.2-3.2 26.6-39.5 41.6-87.4 40.2-138.5C522.3 143.3 416.7 41.1 288.9 41h-.4c-127.9.1-233.5 102.3-237 230.8-1.4 51.1 13.6 99 40.2 138.5.7 1.1 1.4 2.1 2.2 3.2h6c-1-1.4-2.6-3.8-2.6-3.8" class="st1"/><path d="M312.1 383.1c.7-1.2 2.7-4.3.6-7.9-2.4-3.3-5.3-3.7-7.4-3.7-5.6-.5-7.9-4.5-8.7-6 1-7.3 2.7-16.2 2.7-16.2 14.1 0 25.2-11.6 28.9-25.1 3.7-13.4 8.9-28.9 13.9-37.6 4.9-8.5 12.6-27 3.5-46.6-1.1-2.2-2-4.5-2.6-6.7-.5-2-.8-3.5-.8-3.5l-.6-3.5s0-2.4.4-1c.5.2 4.6 1.5 5.3-1.8.7-3.1 2.8-4.3 2.8-4.3s-1.5-1.2-3.7-.4c0 0 1.8-1.9 1.7-3s-3.3-2.2-3.3-2.2c.4.1 3.2-10.3 3.2-10.3 8.5-32.2 1.1-66-22.6-93.6-25.9-30.2-50.4-21.1-56.1-19.9-30.7-14.6-58.5-13-88.3 13.7-31.6 25.9-45.6 64.7-50.8 86.7-7.7 37.1-4.3 53.7 1.6 80 0 0 6 24.7 3.6 39.5-1.9 11.9-13.5 33.7-18.6 42.4-4.4 7.4-11.8 18.7-10.7 36.4 0 0 1.2 19 19.9 24.8h179.4c.5-18.6 6-29.1 6.7-30.2" class="st1"/><path d="M346.1 239.6c-4.4-9.1-4.3-18.4-3.5-24.6.1-.4.5-1.7 1-3.1.1-.3.2-.6.2-.8 3-6.4 6-27.4 4.5-46.1-2.6-28.6-30.2-66.3-48-72.1-18.3-6.3-31.4-.7-32-1.1-.5-.4-4.4-2.1-4.4-2.1-21.4-9.8-50.3-11.5-78.3 13.3-26.8 23.7-31.2 36.8-38.4 52.1-20.1 42.7-17.9 74.9-17.9 74.9s-.6 12 7 45.5c0 0 5.2 21.4 3.1 35.4-1.9 12.3-12.6 35.8-19.5 46.5-6.7 10.4-10.1 21.2-9 31.3 1 9.1 6 18.4 15.1 25.1l114.4-.1c-1.9-21.1-25.8-32.3-25.8-32.3-30.4-14.4-34.5-32-34.5-32-1.6-5-2-9.4-1.7-14.1 3.5 7.3 11 17.4 27.2 26.9 29.5 17.4 58.9 24.8 71.6 26.4 2.5.4 5.8 1.3 5.6 5.6v.1c.1 3.5-.6 7.3-1.2 10.7-.5 3.1-1.1 6.5-1 8.5h2.3c-.2-1.3.4-5.2.9-8.1.6-3.4 1.3-7.2 1.2-10.8.5-1 2.8-5.3 7.8-6.8 9.1-2.9 13.4-5.5 14-8.3.2-.9.1-2.2-1.4-3.5-.5-.4-1.2-.4-1.6.1s-.4 1.2.1 1.6c.8.7.7 1.2.7 1.3-.2.7-1.4 2.5-8.7 5.3-.2-5.7.3-11.7 1-17.1 1 1.7 3.5 4.4 9.4 5.1 2.9.3 5.1 1.6 6.1 3.6s.6 4.6-1.1 7.3c-3.5 5.5-7.1 21.5-6.9 30.3h1.4c-.2-8.5 3.3-24.3 6.6-29.6 2-3.1 2.4-6.1 1.2-8.6-1.1-2.4-3.7-4-7.1-4.3-7.5-.8-8.6-4.9-8.8-5.4-.1-.4-.2-.8-.3-1.3 1.1-7.3 2.6-13 3-14.4 13.2-.5 24.4-10.5 28.6-25.7 4.4-16 9.6-30 13.8-37.4 4.1-7.3 12.9-26.6 3.3-47.2m-4.6 46.6c-4.3 7.5-9.5 21.6-13.9 37.7-4.1 15-15.2 24.7-28.3 24.7-25.6.8-32.5-1.7-43.4-6.4-10.1-4.4-22.3-13.1-22.4-13.2-15.2-9.6-23.5-19.8-27.8-26.6-4.7-7.4-5.8-12.6-5.8-12.6-.1-.4-.4-.6-.8-.5s-.6.4-.5.8c0 .1.3 1.5 1.2 3.8 2.3 7.5 9.5 27.4 24.5 43.1 15.4 16.1 30.8 23.4 49.6 26.2 12.9 1.9 18.8 1 21.5-.3-1.1 6.6-2 14.7-1.6 22.4-.5.2-.9.3-1.5.5-3.7 1.1-6.2 3.5-7.7 5.4-1-2.6-3.4-4.2-7.1-4.7-11.7-1.5-41.5-8.9-70.7-26.1-18.7-11-25.4-22.8-27.7-29.7.3-1.6.6-3.2.9-4.9 2.8-13.2-1.3-25.4-7.2-37.6 1.9.7 3.1.8 3.1.8.3.1 5.8 1.6 9-4.6 2.8-5.4-.8-9.5-2.2-10.1 0 0 1.5 2.7.9 5.5-1.5 6.7-8.9 6.6-12 .9-1.5-2.9-2.5-4.9-5.3-9.4-3.1-5.2-6.9-9.7-6.9-9.7s-4.1-5.3-6.3-12.4c-4.2-12.7-.6-21 .9-23.6.5.4 1.3.8 2.1 1.3-1.3 2.6-3.3 9.2 1 20.9 3.5 9.6 6.6 13.6 8 15l.8-1.1s-2.4-4.4-6.6-14c-3.6-9.7-1.5-16.6-.3-19.3 1.5.7 3.3 1.4 5.2 2-.1.8.1 2.6 2.8 2.8 1.7.1 2.4-.7 2.6-1.5.2 0 .4.1.6.1 1.3 2.1 2.2 3.9 2.6 5.6-.8-.9-2.1-1.7-4.3-1.4-3.6.5-7.6 3.6-7.4 6.5.2 2.8 1.5 2.2 1.5 2.2.9-.4.3-.9.5-1.9s.9-2.1 2.8-3.6c1.9-1.4 3.7-1.4 3.7-1.4 1.3 1.2 2 3.4 2.3 4.6-.6 1-1.6 2-2.8 3.1-4.7 4.4-1 9.5.8 10.4-3.1-7.5.6-9.1 1.6-10 1-.8 3.3-2.1 3.6-6.6.2-3.5-1.1-6.1-1.9-7.3 4.7.2 10-.5 15.5-3 19.5-8.8 25.1-29.3 28-38.3s8.2-30.6 21.5-39.2c13.3-8.5 34.8-7.9 34.8-7.9s10.7 1 12.7-4.6c-.7-1.2-.2-1.6.2-3.2s.2-2.2-.5-2.9c.7-1.1 0-2.2-1-3s-.5-1.7.1-2.1c-1.1-.6-1.3-1.3-1.3-3.4.1-2.1-1.1-2.7-1.8-2.8.3-1.1.1-2.1-1.2-3.1s-1.1-2.4-.7-3.1c-2.6-1.7-1.1-2.9-1.1-2.9-3.6-1.6-2.6-3.8-2.6-3.8s-1.1-.7-1.1-1.2c.7-.4 1.4-1.7 1.4-1.7l.7.3c-.9 1.6.6 3.3 2.1 3.3 1.4 0 2.5.4 2.2 1-2.8-.6-2.1 1.7-2.1 1.7s.1 1.2 2.4 1.5c2.6.4 2.4 3.6 2.4 3.6-1.4.4-.9 2.1.2 2.6s1.8 2.3.8 2.8c.7.3 1 .8 1.3 2s1.6 1.5 2.3 1.5c-1.3.7-1.1 1.9-.8 2.2s1 1.6 0 2.2c.8.1 2.3 1.1 2.3 1.9-.8 0-2 .3-2.3.8 1.2.6 1.9 3 1.9 3-1.6 1-1.4 2.3-1 2.3 3 .4 4.3 4.3 4.3 4.3 17.2 2.2 34.5 7.1 40.7 18.1s9.6 34.3 7.7 42.7c2.1 5.7.5 9.5.5 9.5-.2.7-.4 1.4-.5 1.6v.1c-.9 6.4-1 15.9 3.6 25.4 9.4 20 .8 38.8-3.3 46" class="st0"/><ellipse cx="176.1" cy="276.8" class="st0" rx="3" ry="3.5" transform="rotate(-7.778 176.067 276.697)"/><path d="M136.8 371.8c.3-14.2 7.3-18 11-20.4 5.6-3.7 5-9 5-10.5 1.6 5 .8 9.7-5.5 13.3-5.1 2.9-4.8 8.2-4.5 10.3.2-1.2.5-4.4 5.7-6.5 5-2 4.7-4.8 4.7-4.8 1.6 3.6-2.5 5.5-5.7 8.3-3.2 2.7-2.8 6.8-2.2 9.2-.2-5.3 3.6-6.5 4.2-6.6 2.4-.7 4.7-1.5 4.7-3 .9 3.4-3.6 3.4-5.4 6.4-1.7 2.8-2 5.3-1.1 9.1-.1-4.9 3.2-6.1 3.2-6.1 1-.4 4-1.7 4-3.5.9 2.7-1.4 3.9-2.7 4.8s-1.8 2.8-2 6.5-.1 6.9 2.3 8.9c-7.3-2.6-6.3-10.6-6.3-10.6-2.2 3.5-1.6 8-.7 9.9-4.1-3.1-3.6-8.7-3.2-11.3-2.8 4.3-1.5 11.9 0 13.6-6-4.2-4.7-11.7-3.8-14.6-4.3 6.8-1.3 16.6-.4 18.5-9.6-10.7-5.9-23.2-5.1-25.5-5.2 7.5-2.7 14.8-2.7 14.8s-8.5-13.3 6.7-30.6c9.4-10.8 14.5-15 11.9-31.6 0 0 8.3 15.6-3.3 27.9-7.8 7.7-12.6 14.8-8.8 24.1" class="st1"/><path d="M278.1 228.1c-1.6-2-3.3-3.4-7.5-5s-6.1-3.2-6.1-3.2-.4.4-1.1.3c-1-.2-.9-1-.5-1.2-.4-.4-1.3-.3-2.1 0-.6.2-1.3.2-1.4-.3-.1-.4.1-.6.3-.7-.7-.3-1.5 0-2.1.4 0 0-.8.6-1.4.1-1.2-.9-2-.7-2-.7s.5 1-.6 1.2c0 0-1.4.2-1.8-1.1-.6.3-.8 1-.7 1.3-1.4.3-2.6-.6-2.6-.6 1.2-1.3 5.6-2.8 11.5-2.6 6.4.1 14.8 4.6 14.9 4.7.2.1.4 0 .4 0s.2-.3.3-.4c.1-.2-.1-.3-.1-.3-5.2-3.1-9.8-6.3-18.2-6.7-6.9-.3-12.3 2.8-12.3 2.8-2.5 1.4-4 .3-4 .3-.1 1 .2 1.7.2 1.7-1.9.4-2.9-.6-2.9-.6s0 1.7.5 2.3c-1.9.1-2.9-1.1-2.9-1.1s-.1 1.9 1 3c-1.8.3-3.5-1.4-3.5-1.4s-.3 2.5 1.9 3.8c-2.4.8-4.4-1.2-4.4-1.2-.3 2.7 2.2 4 2.2 4s-2.2.5-3.7-.5c.6 4.1 6.8 3 6.8 3s.4 1.6-2.6 3c0 0 1.6 1 4.6-.6.1 1.2-1.7 2.3-1.7 2.3s1.6.2 3.5-.9c0 0 .1 1.1-1 1.8.8.3 2.1-.1 2.5-.4 0 0 .1.7-.4 1.1 1.6 0 2.2-.5 2.3-.6 0 0 .4-.4.3.6-.1.6.4.8.4.8s.5-1.2 3.1-1.6c.1.7 1 1.4 2.5 1.5-.3-.3-.9-2.7 2.3-2.5h.2c1.2.1 3.2 0 5.3-1.5 2.2-1.5 3.3-3 3.2-5.6 0-1.9-.7-2.3-1-2.3 0 .2-.1.4-.1.4s-.3.7-1.2.8c-1.1 0-2-.6-2-1.7s1-2 2.4-2c1.4-.1 6.1-1 17.3 6.3 0 0 .3.2.5.2.4 0 .9.1 1.3 0 .3 0 .2-.2.2-.4m-37.7.6s1.7-3.7 6.9-4.8c-.8.9-1.3 2.1-1.3 3.5 0 2.3 1.4 4.2 3.4 5-2.2-.1-7.5-.4-9-3.7m26 71.6c-2.7-3.4-7.5-6.3-8.4-6.5-.8-.2-.6-.7-.6-.7 0-.3.2-.3.2-.3 1.4.2 7.8.7 13-.1 6-1 21.5-8.4 33.4-3.5 0 0 2.3-.2 3.8-.8 1.6-.6 4-1.6 6-1.3 2.1.3 2.8.3 7.2 2.8 1.4.8 3.1 1.2 4.1 1.1 0 0-2.3 2.8-4.4 9.2s-4.2 19.3-24.5 19c-9.6-.1-19.1-3.4-24.1-10.8.2.1-3-4.7-5.7-8.1m50.3-6.1c-.2-1-8 2.5-24.4 1.9-14.2 0-19.9 1.2-19.9 1.2s2.3 2.5 7.8 5.5c8.3 3.3 12.9 3.8 19.9 3.2s8.4-1.7 12.1-4.4c3.6-2.6 4.7-6.1 4.5-7.4" class="st0"/><path d="M299.5 290.4c.4 0 .2.5.2.8-2 1-4.6-1-6.4.8q-1.2.15-2.1-.6c0-1.5 2-.7 2.8-1.5 2.4-1.1 3.6 2.3 5.5.5m12.7 17.3c-3.5 2.6-7.5 5.8-12.1 4.2-.5-.6 0-1.5.7-2 2 .5 3.5.2 4.8-1.5 2.5.3 4.5-.5 6.6-1.3zm-15.6 3c.6.2.3.9.4 1.3-1.4.5-3 .1-4.2-.4l-1.7-1.6c1.5-.9 2.5 1.2 4.1 1.1z" class="st1"/><path d="M287.2 274.8s.3-3.3 5.2-3.8c3.9-.4 5.4 2.9 9.2 4s8.1-.4 10-1.6c.2-.1.4-.1.7.3s-1.5 2.8-6.4 3.1c-5 .2-9.4-2.3-10.5-3.1 0 0-1.5 1.2-3.4 2-1.6.6-4 .9-4.8-.9m-3.7.7s-7 1.1-7.5-4.6c.2-5.3 4.3-5.6 4.3-5.6s.6.6-.2 3.1c0 0-1.6 4 3.4 7.1m24.3-57.5s-6.8 5-4.3 17c2.2 11 8.9 21.3 8.9 21.3s-4.8-16.2-6.1-23.6c-1.2-6.9.8-12.6 1.5-14.7m-33.7 11.4c.4 0 1 .2 1 1.3 0 1.3-1.2 1.4-1.2 1.4s-1-.4-2.7-.3c-2.6.2-4.5 1.6-7.9 2.9s-4.8-.4-4.8-.4 2.5-.1 5.7-1.9c4.6-2.5 7.7-2.3 8.8-2.2-.1 0 .1-.8 1.1-.8m63.8-27.8s3 1.8 4 2.6c.1.1.3.3.3.5s-.1.6-.6.4-3.3-1.4-5-1.7-4.3-.2-7.8 2c-5.2 3.3-9.8 6.3-11.9 8.4 0 0-3.6 3.5-5.3 1.5s.1-4.4 2.7-5.9c2.9-1.7 4.1-2.2 7.2-4.6 2.1-1.6 5.7-4.7 10.4-4.6 3.8 0 6 1.4 6 1.4m-115.4 13.1c16.6-11.7 23.1-11.3 28.1-11.9.9 2 2.9 1.2 5 1.3s2.1 1.9 2.1 1.9c6.5.3 13.7 4.1 15.7 5.1s4.6 2.7 4.6 2.7 2.4 1.3 3.5-1.6-2.3-4.5-2.3-4.5c.4.1-1.1-.5-2.6-1.3-1-.5-5.2-2.5-6.8-3.2-1.1-.5-2-.9-2.6-1.2-1.4-.7-5.7-2.3-9.2-3.1s-7 .1-7 .1c-14.1 3.1-29.4 15-29.4 15s-.6.5-.4 1 1.3-.3 1.3-.3" class="st0"/><path d="M192.6 209.2s-4 9.9-14.3 11.1c0 0 11.7 1.9 16.1-10.3 0 0 5.4-10.2 6.9-12.7 0 0-4.9 3.9-8.7 11.9" class="st1"/><path d="M190.3 208.5s6-9.3 7.7-11.4c0 0-4.7 3.8-9.3 10.5 0 0-4.9 8.5-14.2 8.7 0 0 10.1 2.6 15.8-7.8" class="st1"/><path d="M186.7 206.8s6.4-8.4 8.3-10.2c0 0-4.5 3.6-9.5 9.3 0 0-5.6 7.1-13.8 6.5 0-.1 8.5 3.1 15-5.6m5.5-68.4 1.5-.2c1.1 3.6 3.1 4.6 6.3 4.6-1.9-2.2-.1-4.1-.1-4.1s-1.8-.6-2-1.5c3.3-7.2 7.2-9.5 7.2-9.5l.1-4.2c-.6.1-7 4.8-10.3 11.9.7-6.4 4.1-11.8 10.9-17-2.1-.1-6.9 1.2-10 4.1-.3-3.8 3.3-5.4 3.3-5.4l-1.1-1s2.8-3.3 6.1-5.5c-4.3.3-10.2 3.5-15.6 8.1.1-2.6 2.4-5.6 3.7-6.8-4.3.5-6.7 2.9-6.7 2.9s2.9-6.5 5.9-10.3c-8.9 4.4-16.3 15.5-16.3 15.5s3.1-2.2 5.5-2.1c-1.8 1.5-3.6 2.6-4.7 7 1.8-1.8 5.7-2.4 5.7-2.4s-2.1 1.3-1.7 4.1c1.5-2.4 4.4-2.9 5.7-2.9-1.8 1.2-2.6 3.3-2.3 5.1 1-1 3.1-2.8 4.5-2.7-2.7 2.3-4.3 5.2-4.4 7.5 2.6-2.4 4.5-2.3 4.5-2.3s-2 2.8 0 6.5c0 0 1.3-6.6 7.1-9.3-4.4 5.3-2.8 9.9-2.8 9.9" class="st1"/><path d="M212.2 135.6c3.5-4.7 7.7-3.6 7.7-3.6s-6.2 3.5-5.9 10.6c1.2-2.5 3.4-6.6 6.3-7.7 2.5 1 3.3 1.2 3.3 1.2s-2.5 2.2-2.6 6.1c2.1-2.4 5.7-5.4 8.5-5.9-1.2 1.5-1.5 3.7-1.5 3.7s1.3-1.5 5.5-1.8c-1.6 1.2-2.4 2.4-2.6 4.6 0 0 1.9-2 7.8-1.4-2.8.5-5.1 2.2-5.4 4.5 1-.3 2.4.3 2.6.7-1.9.6-1.9 1.6-2.3 3.3s.5 2.9-2.5 4.1c-3.1 1.2-3.6 3.3-3.6 3.3s-1.6-2.8-1-3.9c-.5.3-1.7 1.2-1.7 1.2s.2-3.3.8-4.2c-1.1-.1-3.4 1.4-3.4 1.4s1.1-6.1 2.4-7.4c-2.4.8-5.5 5-5.5 5s-.8-1.8-.5-3.2c-1.1.1-3.2 1.7-3.2 1.7s1.5-4.3.9-4.7c-3.4.5-5.4 3.3-5.4 3.3s-1.6-3 .2-5.1c-3.5.8-5.1 5.1-5.1 5.1l-2.9-1.7s.4-3.2 4.4-4.4c-2.3-.7-6.2 1.7-6.2 1.7-1.2-2.8 2.4-4.3 2.4-4.3s-2.4.2-3.3-1.3c3.7-7.7 7.7-7.6 7.7-7.6l.2 3.5c-3 .9-3.4 2.3-3.4 2.3s2.4 1.4 4.5.3c0 0 1.1-3.2 5.4-3.5-1.9 1.6-2.6 4.1-2.6 4.1m42.8-17.7c1.1-.2 5.3.4 5.3.4s-2.5.9-2.5 1.8c.8 1.3 3 1.4 5.6 1.6-1.4.2-3.7 1-4.3 1.9.8 1.6 4.9 2.5 8.3 2.8-1.8.6-2.8 2.2-2.8 2.2s2.2.4 4.1 1.2c-3.2.6-4 2.4-4 2.4s1-.3 3.9 0c-2.6.7-3.9 2.3-5.1 3.3 3.7-.2 4.8 2 4.8 2s6.1-1.4 9.3-.5c-.6-1.1-6.4-2.7-8.6-2.2 2.6-2.1 9.5-1.7 9.5-1.7-1.6-2-5.5-1.7-5.5-1.7s1.3-2.5 1.3-3.4c-.8-.9-2.7-.7-2.7-.7s1.2-2.1 1.2-3.7c-.3-2.7-7.8-3.4-7.8-3.4s2.7-.7 5.3-.7c-.7-1.7-5.8-3.3-9-3 3.4-3 7.5-1.6 7.5-1.6-.9-2.8-2.2-4.3-3.1-4.7-5.7-2.1-10.9-1.2-17.5.7 0 0 5.7.4 7.2 2.1-1.6 0-3.3.8-3.5 1.2 1.9.4 3 1.4 3.1 3.7m-14.2-17.2c1.1-.6 2.9-1.7 2.9-1.7s-1.3-3.1-3.3-3.3c.5-.7 3.8-2.1 5.5-1.8-.7-1.1-3.1-2.2-6.5-1.1-.3-2-2.8-6-2.8-6s9-2.2 21.2 4.8c0 0-3.7-.5-6-.2 4.5 1.2 6.5 2.7 8.2 4.6-3.2-.9-9.4-.2-11 .6.4.7.4 1 .4 1s6.6-1.5 11.4 1.6c-4.1-.4-12.1-.6-18.2 2.7-.6-.7-1.8-1.2-1.8-1.2m7.4 8.7s9.4-3 15.8-1.6c-.4-1.2-1-1.3-1-1.3s-4-2.4-16.1.8c1 1 1.3 2.1 1.3 2.1" class="st1"/><path d="M263.4 104.3s-7.6-1.9-16.3 1.1c0 0-.5-1.8-2.2-3.4 4.5-1 13-3.6 18.5 2.3m9.3-4.9c-.2.3-.2.7-.5.9-.5-.6-1.5-1.3-1.1-2 .6.1 1.3.5 1.6 1.1m-.2 2.4-.2.6 1 1s.3-.5.2-.8.1-.9-1-.8m25.4 11.8s1-1.4 2.5-2c-.9-1.2-3.2-1.4-3.2-1.4s1.8-1.9 5-1.1c-.6-2.5-8-3.5-10.1-2.3.5-3 5.2-3.2 5.2-3.2s-3-1.3-7-1c.4-.9 3.3-2.7 7.8-2.1-1-1.5-6.6-2.4-9.8-2 .6-1.4 2.6-2.3 2.6-2.3s-3.3-2.1-10.9-1.9c4.5-1.6 10-1 10-1s15.1 1.3 22.3 12.3c-1.8-.9-4.3-.4-4.3-.4s3.3 1.2 4.3 6.3c-3.3-2.1-7.1-.9-7.1-.9s4.8.9 8.2 5.9c-1.7 0-1.9.6-1.9.6s1.5.7 2.8 2.9c-3.8-.6-6.2.8-6.2.8s4.1-.3 5.8 2.7c-1.6.3-1.9 1.7-1.9 1.7s2.4-.2 2.4 1.4c-2.2 0-2.7 1.3-2.7 1.3s2.1.6 2.7 2.2c-1.5.6-1.9 1.4-1.9 1.4s5.6 2.4 6.6 6.5c-3.3-2.9-7.8-5.9-16.3-5.8 1.4-1.7 3.4-2 7.2-2-.3-1.4-3.3-2.1-6.8-2.8 1.6-.2 4.5-1.4 4.9-2.2-.5-1.1-4.7-2.9-8.9-3.9 0 0 2.9-3.1 7.2-2.6-.1-.2-4.1-5.3-8.5-5.1m8.4 22.2s6.4-.7 12 4.5c-.5.9-1.9 1.4-1.9 1.4s3.6 1.1 4.1 5.2c-7.3-5.6-15-5.4-15-5.4s.5-2.2 4.7-1.8c-1-2.4-3.9-3.9-3.9-3.9m-81.6 269c.3 1.9-.4 4.4-2.2 5.1.3-1.4-.4-3.8-1.5-4.4-.2 3.5-1.4 4.9-2.9 5.6.7-1.3.1-3.8-.8-4.1-2.3 3.3-7.3 1.6-7.6-.5 3.1 1.2 5-1 5.1-2.7-5.1-1.2-3.1-6.3-3.1-6.3s1 4 4.2 3.4c3.1-.6 3.7-2.9 3.1-4.7-.6-1.9-2.2-3.5-8.2-6.2-11.2-5.1-20.6-13.3-24.4-20.2 2.3 3.2 14.4 14.9 29.1 20.4 16.1 6 12 18.6 12 18.6s-1.2-3.9-2.8-4" class="st1"/><path d="M343.4 220.4c2.2-1.3 1.8-3.3 1.8-3.3s-1.2.9-2.9.7c1.5-.6 1.3-2.2 1.3-2.2-2-1.7-6.2-3.9-10.3-3.4-7 .9-14.6 4.3-18.8 9.2.8 1 .5 2.5.1 3.2-.4 1.4-2.6 2.9-.8 3.8 2 1 2.3 1 2.8 1.3-2.3-3.4 1.2-6.6 1.2-6.6s2.2-2.1 4.7-3.4c-1.2 1-2 2.3-2 3.8 0 2.7 2.5 4.9 5.6 5.2-5.7-.2-7.4-1.5-7.4-1.5 1 .8.8 1.7.8 1.7.7 1 3.7 1 3.7 1 8 0 7.4 1.1 12.5.4 5.6-.7 6-3.4 6-3.4.6-.8.6-1 .3-1.7s-.5-.6-1.1-.6c-.5 1.5-2.5 2-2.9 1-3.4 2.9-9.2 3-10.5 3 3.4-.2 6-2.5 6-5.3 0-1-.3-2-.8-2.8-.8-1.1-2.1-1.7-3-1.9-1.6-.2-1.7.7-1.7.7 1.2-.2 1.2.8 1.2.8 0 1-1.4 1-1.4 1s-1.4 0-1.5-1.3c-.1-1 .7-1.5 1.5-1.7 8.2-.9 12.7 3.7 13 4 0 0 2.1 2.4 3.9.8 1-.9 1.1-2.7 2.4-3.3-.7 0-2.5.1-3.7.8m-8.2-4.9s-1.6-.9-3.4-.2-4.1 1.4-5.6.7c0 0 1.6-1.1 4.6-1.6 1.5-.2 4-.5 5.6 0 .3.5-1.2 1.1-1.2 1.1m3.8 1.2c-.4-.5-1.2-.4-1.2-.4s-.4-.2-.2-.8.7-.7 1.2-.5c.7.2.4 1.4.2 1.7m236 94.7c-.7.3-1.5 2.5-1.5 2.5s-.5 2.5-3.1 1.6c-1.4.8-3 1.6-8.2 1s-65.1-3.6-65.1-3.6-.1-11.3.9-15.2h1.7s57.2-.4 63.7-.9c7-.5 10.4 1.5 10.4 1.5s2.7 1 3.4 4.3c0 0 .5 1.9 0 4.6-.6 3-1.5 3.5-2.2 4.2" class="st0"/><path d="M575 311.4c-.7.3-1.5 2.5-1.5 2.5s-.5 2.5-3.1 1.6c-1.4.8-3 1.6-8.2 1s-65.1-3.6-65.1-3.6-.1-11.3.9-15.2h1.7s57.2-.4 63.7-.9c7-.5 10.4 1.5 10.4 1.5s2.7 1 3.4 4.3c0 0 .5 1.9 0 4.6-.6 3-1.5 3.5-2.2 4.2" class="st0"/><path d="M572 309.7c1.4.4 2.1-.5 2.1-.5s.4-.9.5-1.7c.2-1.7.2-5.3-.8-5.8-1.7.9-1.5 4-1.2 5 0 0 .4 1.3-.1 1.8-.4.5-.9.3-.9.3s-1-.4-1.4.5-.6 1.8-.4 2.7.2 1.2.7 1.3c.6.1.8-.3.8-.6-.1-.3-.4-.9-.4-1.7s.1-1.2.3-1.3c.3-.2.7-.1.8 0m-89.4.1c.4-.8.2-3.5-.1-5.1-.3-1.9-.1-4.3-.1-4.3-2 0-3.8.1-5.5.1 0 0 2 7.5 3.2 9.1zm30.7-35.7c-.6-.2-1.2-.1-1.9.1.4.3.8.6 1 1.1.8 1.8-.3 2.7-.3 2.7s.4-.7-.1-2c-.5-1.2-2-1.3-2-1.3-.6-.1-6-.5-12.4 8.3 0 0 2.2 3.8 2.1 7 0 3.2-.4 6.8.3 8.3 0 0 8.9-16.3 12-18.8.9-1 1.8-1.9 2.1-3.2.3-1.1 0-2-.8-2.2m-45.4 6.9c.8.1 1.4.4 1.8 1.6.7-1.3.3-2.4.3-2.4-.5-1.9-5.7-.6-5.7-.6s-1.7.3-4.6 1.7c-2.9 1.8-12.8 5-12.8 5s3.9.6 6.9 3c3.1 2.5 8.2 3.3 8.2 3.3 5.7-2.5 6.3-6.7 6.8-8.8.3-.8.4-2.2-.9-2.8" class="st1"/><path d="M497 302.6c.4-5.1.9-9 .8-12.1-.2-6.1-3.3-8.3-7.2-16-1.2-2.3-2.6-5.3-3.2-6.9-.8-2.1-.8-2.6-1.3-3.7-.9-2-2.4-3.2-3.7-3.3 0 0-1.1.9-1.4 2.7-.1 1.1-.2 3 .4 4.7-.4-.6-.9-1.4-1.2-3.1-1.2 1.9-2.1 6.7 1.3 14.9 0 0 .2 7.7 4.8 13.9-2.8 4.1-1.9 6.8-1.3 14.4s-1.5 7.8-1.5 7.8 3.7 4.6 4.1 9.8c-.1 6.1-4.3 8.9-8.7 14.1-7 7.8-16.5 15.8-22 20.3-1.7 1.6-3.3 2.9-4.5 3.6 0 0 1.5-1.7 4.3-4 7.7-7 18.7-19.4 18.7-19.4s7-8.6 9.1-11.2 1.1-4.7 0-6.5c-2.8-4.2-8-16.3-9.8-20.9s-5.6-6.1-7.8-6.5c-6.4-1.2-9.5-2-11.8-3.6-5.9-4-8.5-3.7-8.5-3.7-5-3.7-9.5-2.1-9.5-2.1.1.2.8 1.4 2.2 2.6.9.7 2 1.4 3.5 1.9.2.2-1.5.2-3.2-.8.8 2.4 3.3 8 10.4 10.6 0 0 6.1 3.4 10.6 4.3s4.8 2.1 7.2 9.8c.9 2.9 4.7 14 6 16s3 5.5 0 9.1c0 0-2.5 3.2-4.6 5s-6.9 5.6-10.1 9.3-10.4 9.7-16.1 11.9c3.8-2.2 15-13.2 16.3-14.9 1.2-1.7 6.1-6.5 8.2-7.9 2.1-1.3 5-4.8 5.7-7.1.7-2.4-1.9-5.5-2.3-6.5-.3-1-4.2-11.3-5.6-16.3-1.4-4.9-3-6.7-5.7-6.7-1.9-.1-1.7.1-4 .1-.9 0-1.4 0-3.7-.1-.2 0-6.3-.3-8.8-1.1-1.9-.8-8.1-2-10.7-.3 0 0 .4 1.4 4.7 2.5.1 0-.8.1-1.9-.2.4.9 2.2 4.2 9.5 6.3.7.2 1.4.4 2.1.5 5 1.1 9.7.6 9.7.6s-.1 1.3-2.2 1.6c-.8 6.4 4.9 13.5 4.9 13.5s2 .5 2.3 1.4c-1.1 1-4.1 0-4.1 0-5 1.4-20.9 9.6-27.5 14.8-3.1 2.4-4 3-22.9 2.3-18.5-.6-29.9 8.5-41.1 16.5 18.3-21 41.6-19 41.6-19 6 .2 12.1 1 16.1.8 3.5-.2 5.8-2.1 5.8-2.1 9.2-7.1 24.4-14.3 27.3-14.9-.5-.6-1.5-2.7-1.5-2.7-3.2-1.4-7.3-.7-11.6-.2-2.6.3-5.8 0-8.6-.3-3-.3-8.5.3-11.3 2.9-3.9-2.2-6.8-2.7-7.1-2.8s-6.8-.3-7.2-2.3c9.5-.1 6.9 1 11.5 1.3s9.9-6.7 9.9-6.7 3.5-4.5 6.3-6.4c-3.2-1.4-4.2-4.3-4.2-4.3-1.3-1-3.3-2.6-3.3-4.3 6.7-3.9 13.3-.5 13.3-.5 1.3.5 2 1 4.3.6.4-.1 2.1-2 2.1-2-7.2-1.1-9.3-6.4-9.3-6.4-1.8-3.2-1.3-4.4-2.1-5-2.3.6-4.8 3.9-14.6 8.5-8.9 4.1-19.1 8-19.1 8s-7 2.3-18 9.3c-9.4 5.5-13.6 12.7-18.8 19.5-6.7 8.8-13.5 16.7-13.5 16.7-9 14.1-6.5 25.7-6 31.8.4 5.4-1.4 24.8-1.7 29h50.5c-.3-2.6 0-9.6 0-9.6s.3-12.5 6.7-17.7c.3-.3.5-.5.8-.6.7-.5 1.1-.7 1.1-.7s21.9-9.4 33.3-12.1c12.1-3.5 22.9-14.4 24.4-15.8s9-9 9-9c19.2-14 22.7-19.5 24.1-21.1 1.3-1.6 1.1-7.8 1.1-7.8s-.6-10.5-.2-16m2.4-2.4s59.6-.8 61.5-.9c2-.2 6.8-1.3 8.4 1.8.9 1.2 1 4.5-1.3 4.8.2 1.1-.1 2.6-1.4 2.5 0 0 .7 1.4 0 2.4-.6 1-.1 2.6.3 2.9s1.8 1.5-3.5 1.1-64.7-3.6-64.7-3.6.7-9.4.7-11" class="st1"/><path d="M559.9 267.1c-21.4-8.4-38.7-6.4-46.6-8.9s-10.4-2.8-10.6-7.8c0-3.3 5.6-3.4 5-6.3-1-5-15.3-5.8-17.9-5.8s-34.7-1.9-34.6-9.3c-.7-3.8 7.6-4.7 11.9-5.3s26-4.1 26.9-12.3c.9-8.1-25-16.2-62.2-18.3 0 0-22.9-.6-25.5-7.4 0 0-1.1-3.6 6.5-5.3s4.2-6-2.5-7.6-14.6-3.3-13.5-9.3c1.5-7.8 30.1-3.9 30.1-3.9s45 7.2 72.6 3.1c33.8-4.4 32.5-13.5 32.5-14.9 0-3-3.3-5.6-12.3-8.5-11.4-4.2-14-10.9-10.7-15.2 0 0 2.6-6.8 28.3-13.6 25.6-6.9 19.8-23.9 18.5-26.2-1.5-2.6-12.8-27.9-87.2-18.7 0 0-33.3 5.8-50.3-4 0 0-5.3-3-9.5-5.1.5 4.9 2.8 10 8.9 17.3 9 10.8 30.4 12 30.4 12 6.3.4 13.1.4 19.9.2 24.5-.7 48.8-3 49.4 12.9.5 19.3-66.9 26.3-66.9 26.3-11.2 1.2-10.1 4.8-10.1 4.8.2 5 13.7 5.9 12.1 11.4-1.3 7.6-26.5 8.3-26.5 8.3s-24.6 2.1-33.5 3.5c-8.9 1.5-18.3 5.4-19.1 10.7-.8 5.2 4.8 6.1 8.4 6.2 3.7.1 16.3 3.3 17 7.2.8 4-5.8 5.5-13.2 6.6s-16.4 3.8-15.4 7c1 3.3 7.9 5.2 7.9 5.2s10.6 3.4 15.1 5.3c4.4 2 5.4 4.9 1.1 6.4s-3.9 3.2-3.9 3.2c0 5.8 9.1 9.2 16.9 11.2s22.5 3.8 26.9 7.2c4.3 3.4-2.9 5.6 7.7 11.3s33.6 5.5 33.6 5.5c9 .3 15.5 1.9 15.7 9.2.3 8.9 14.3 11.5 23.9 12.8s30.9 2.2 44.3 6.5 11.9 15.7 11.9 15.7 10.1-15-11.4-23.3m-127-48.8c-15.4-.3-27.9-4-27.8-8.2s12.7-7.4 28.1-7c15.4.3 27.9 4 27.8 8.2-.1 4.1-12.7 7.3-28.1 7" style="fill:none;stroke:#000;stroke-width:3.8788;stroke-linecap:round;stroke-linejoin:round;stroke-miterlimit:10"/><path d="M417.5 73.7c9 10.8 30.4 12 30.4 12 29.1 2.1 68.6-7.2 69.3 13.1.5 19.3-66.9 26.3-66.9 26.3-11.2 1.2-10.1 4.8-10.1 4.8.2 5 13.7 5.9 12.1 11.4-1.3 7.6-26.5 8.3-26.5 8.3s-24.6 2.1-33.5 3.5c-8.9 1.5-18.3 5.4-19.1 10.7-.8 5.2 4.8 6.1 8.4 6.2 3.7.1 16.3 3.3 17 7.2.8 4-5.8 5.5-13.2 6.6s-16.4 3.8-15.4 7 7.9 5.2 7.9 5.2 10.6 3.4 15.1 5.3c4.4 2 5.4 4.9 1.1 6.4s-3.9 3.2-3.9 3.2c0 5.8 9.1 9.2 16.9 11.2s22.5 3.8 26.9 7.2-2.9 5.6 7.7 11.3 33.6 5.5 33.6 5.5c9 .3 15.5 1.9 15.7 9.2.3 8.9 14.3 11.5 23.9 12.8s30.9 2.2 44.3 6.5 11.9 15.7 11.9 15.7 10.2-15-11.2-23.4-38.7-6.4-46.6-8.9-10.4-2.8-10.6-7.8c0-3.3 5.6-3.4 5-6.3-1-5-15.3-5.8-17.9-5.8s-34.7-1.9-34.6-9.3c-.7-3.8 7.6-4.7 11.9-5.3s26-4.1 26.9-12.3c.9-8.1-25-16.2-62.2-18.3 0 0-22.9-.6-25.5-7.4 0 0-1.1-3.6 6.5-5.3s4.2-6-2.5-7.6-14.6-3.3-13.5-9.3c1.5-7.8 30.1-3.9 30.1-3.9s45 7.2 72.6 3.1c33.8-4.4 32.5-13.5 32.5-14.9 0-3-3.1-5.5-12.3-8.5-11.2-4-13.8-10.7-10.7-15.2 0 0 4.2-7.2 28.3-13.6 25.5-6.8 20-24.3 18.4-26.3-1.6-2.1-13.1-27.7-87.2-18.6 0 0-33.3 5.8-50.3-4 0 0-5.3-3-9.5-5.1.4 5 2.8 10.1 8.8 17.4m15.4 144.6c-15.4-.3-27.9-4-27.8-8.2s12.7-7.4 28.1-7c15.4.3 27.9 4 27.8 8.2-.1 4.1-12.7 7.3-28.1 7" class="st1"/></svg>